<svg id="Layer_1" data-name="Layer 1" xmlns="http://www.w3.org/2000/svg" viewBox="0 0 425.2 141.73"><defs><style>.cls-1{fill:#fff;}.cls-2{fill:#f58220;}</style></defs><rect class="cls-1" width="425.2" height="141.73"/><path class="cls-2" d="M264,649.1v-.28c10.51-4.83,13.21-12.93,13.21-24.3,0-21.16-10.23-29.4-30.68-29.4H210V701.38h25V659.62h8.24c5.83.42,7.82,4.68,8.53,11.22.17,1.65.17,15.08.16,23.69a3.84,3.84,0,0,0,.11.91,6.87,6.87,0,0,0,7,5.94s17.45,0,17.45,0,.2-34.51-.14-38.5C275.94,655.49,271,650.66,264,649.1Zm-21.35-8.67h-8.52V614.29c12.21-.28,17.48.29,17.48,12.93C251.62,633.76,249.91,640.43,242.66,640.43Z" transform="translate(-89 -575.99)"/><path class="cls-2" d="M200.71,687.28h0a7.18,7.18,0,0,0-7.19-7.16h0l0,0H159.21V601.77a6.92,6.92,0,0,0-6.91-6.93l-.17,0H134.21V701.41h66.5Z" transform="translate(-89 -575.99)"/><path class="cls-2" d="M360.46,637.62h-8.53V611.48c12.22-.28,17.48.29,17.48,12.93,0,6.54-1.71,13.21-9,13.21m20.45,8.67V646c10.52-4.83,13.22-12.92,13.22-24.29,0-21.17-10.23-29.41-30.68-29.41H326.93V698.85h25V656.8h8.25c5.82.43,7.81,4.69,8.52,11.22.17,1.66.17,15.09.15,23.7a3.45,3.45,0,0,0,.13.91,7.15,7.15,0,0,0,7,6.28l0,0,17.27-.05s.32-34.83,0-38.82c-.43-7.39-5.4-12.22-12.37-13.78" transform="translate(-89 -575.99)"/><path class="cls-2" d="M450.84,592.3h0a6.91,6.91,0,0,0-6.88,6.92c0,.14,0,.27,0,.4V672c0,4.55-2,10.24-8.53,10.24-7.1,0-8.67-4.41-8.67-9.53V599.22l0,0a6.91,6.91,0,0,0-6.88-6.89h-18.1v77.15c0,21.88,12.36,32,33.54,32,25.56,0,33.66-13.92,33.66-32V592.3Z" transform="translate(-89 -575.99)"/><path class="cls-2" d="M360.27,638h-8.52V611.88c12.21-.28,17.47.29,17.47,12.93,0,6.54-1.7,13.21-9,13.21m20.46,8.67v-.29c10.52-4.83,13.21-12.92,13.21-24.29,0-21.17-10.22-29.41-30.68-29.41H326.75V699.25h25v-42H360c5.83.43,7.82,4.69,8.53,11.23.18,1.65.18,15.08.16,23.69a3.63,3.63,0,0,0,.12.92,7.15,7.15,0,0,0,7,6.27l0,0,17.26,0s.32-34.83,0-38.82c-.43-7.39-5.41-12.22-12.37-13.78" transform="translate(-89 -575.99)"/><path class="cls-2" d="M316.77,686.62A14.79,14.79,0,1,1,302,671.84,14.79,14.79,0,0,1,316.77,686.62Z" transform="translate(-89 -575.99)"/></svg>