<?xml version="1.0" encoding="iso-8859-1"?>
<!DOCTYPE svg PUBLIC "-//W3C//DTD SVG 1.1//EN" "http://www.w3.org/Graphics/SVG/1.1/DTD/svg11.dtd">
<!-- Generator: Arbortext IsoDraw 7.1 -->
<svg width="100%" height="100%" viewBox="0 0 210 297"
 xmlns="http://www.w3.org/2000/svg" xmlns:xlink="http://www.w3.org/1999/xlink"
 fill-rule="evenodd" clip-rule="evenodd" stroke="#000000" stroke-linecap="round" fill="none" xml:space="preserve">
 <g id="Template_x0020_No">
  <text x="172.27" y="267.497" stroke="none" fill="#000000" font-family="'Helvetica'" font-size="3.528">3100205</text>
  <text x="172.663" y="272.79" stroke="none" fill="#000000" font-family="'Helvetica'" font-size="3.528">14-2017</text>
  <text x="171.996" y="278.081" stroke="none" fill="#000000" font-family="'Helvetica'" font-size="3.528">AJ200D</text>
  <text x="168.544" y="283.372" stroke="none" fill="#000000" font-family="'Helvetica'" font-size="3.528">C0259660-02</text>
 </g>
 <g id="Standard_x0020_layer">
  <polyline stroke="#999999" stroke-width="0.1" points="190.489 285.464 191.373 285.464 191.373 284.644"/>
  <polyline stroke="#999999" stroke-width="0.1" points="5.373 26.349 5.373 25.464 6.402 25.464"/>
  <path stroke="none" fill="#000000" d="M50.975 197.256C51.389 197.256 51.725 196.919 51.725 196.506 51.725 196.092 51.389 195.756 50.975 195.756 50.561 195.756 50.225 196.092 50.225 196.506 50.225 196.919 50.561 197.256 50.975 197.256z"/>
  <line stroke-width="0.3" stroke-linejoin="round" x1="50.975" y1="196.506" x2="50.975" y2="202.953"/>
  <g>
   <polyline stroke-width="0.2" stroke-linejoin="round" points="27.254 157.031 27.202 156.991 26.782 156.569 26.6 156.243 26.481 155.864 25.728 151.938 25.727 151.895"/>
   <polyline stroke-width="0.2" stroke-linejoin="round" points="25.78 151.632 25.868 151.6 26.356 151.599"/>
   <polyline stroke-width="0.2" stroke-linejoin="round" points="26.182 150.899 26.016 150.817 26.007 150.814 25.763 150.73 25.6 150.625 25.501 150.473 25.41 150.286 24.657 146.36 24.638 145.937 24.638 145.864"/>
   <polyline stroke-width="0.2" stroke-linejoin="round" points="26.481 151.432 26.358 151.106 26.14 150.847"/>
   <polyline stroke-width="0.2" stroke-linejoin="round" points="26.37 151.745 26.469 151.592 26.472 151.406"/>
   <line stroke-width="0.2" stroke-linejoin="round" x1="27.66" y1="157.247" x2="27.254" y2="157.031"/>
   <line stroke-width="0.2" stroke-linejoin="round" x1="25.727" y1="151.895" x2="25.73" y2="151.909"/>
   <polyline stroke-width="0.2" stroke-linejoin="round" points="25.733 151.867 25.727 151.895 25.742 151.731 25.775 151.661"/>
   <line stroke-width="0.2" stroke-linejoin="round" x1="47.993" y1="142.377" x2="48.006" y2="142.371"/>
   <polyline stroke-width="0.2" stroke-linejoin="round" points="48.003 142.299 47.984 142.272 47.954 142.275 45.804 143.39 45.771 143.42 45.764 143.433 45.75 143.468 45.749 143.498 45.759 143.518 45.765 143.52"/>
   <polyline stroke-width="0.2" stroke-linejoin="round" points="47.771 148.036 47.781 148.06 47.807 148.08 47.844 148.092 47.854 148.092 47.896 148.086 50.078 146.954 50.088 146.941 50.084 146.923"/>
   <line stroke-width="0.2" stroke-linejoin="round" x1="50.003" y1="146.852" x2="47.79" y2="148"/>
   <polyline stroke-width="0.2" stroke-linejoin="round" points="48.015 142.467 47.988 142.444 47.973 142.423"/>
   <polyline stroke-width="0.2" stroke-linejoin="round" points="48.279 155.474 48.237 155.516 48.228 155.579 48.253 155.687 48.338 155.811 48.395 155.848 48.472 155.858"/>
   <polyline stroke-width="0.2" stroke-linejoin="round" points="48.076 154.425 48.036 154.467 48.027 154.528 48.051 154.638 48.137 154.76 48.192 154.798 48.271 154.807"/>
   <polyline stroke-width="0.2" stroke-linejoin="round" points="47.875 153.376 47.835 153.418 47.826 153.479 47.85 153.587 47.936 153.711 47.991 153.747 48.07 153.758"/>
   <polyline stroke-width="0.2" stroke-linejoin="round" points="47.673 152.326 47.633 152.367 47.625 152.43 47.648 152.538 47.734 152.662 47.789 152.699 47.868 152.709"/>
   <polyline stroke-width="0.2" stroke-linejoin="round" points="47.472 151.276 47.432 151.318 47.423 151.379 47.447 151.489 47.533 151.611 47.588 151.649 47.667 151.658"/>
   <polyline stroke-width="0.2" stroke-linejoin="round" points="47.271 150.227 47.229 150.269 47.222 150.33 47.246 150.438 47.331 150.562 47.387 150.599 47.46 150.609"/>
   <polyline stroke-width="0.2" stroke-linejoin="round" points="47.353 151.252 47.264 151.342 47.253 151.423 47.283 151.563 47.393 151.723 47.466 151.77 47.567 151.782 47.658 151.692"/>
   <polyline stroke-width="0.2" stroke-linejoin="round" points="47.554 152.301 47.465 152.393 47.454 152.472 47.484 152.612 47.594 152.771 47.667 152.819 47.768 152.832 47.859 152.741"/>
   <polyline stroke-width="0.2" stroke-linejoin="round" points="47.756 153.352 47.667 153.442 47.655 153.521 47.686 153.663 47.796 153.822 47.868 153.87 47.97 153.883 48.06 153.792"/>
   <polyline stroke-width="0.2" stroke-linejoin="round" points="47.957 154.401 47.868 154.491 47.856 154.572 47.887 154.711 47.997 154.871 48.07 154.919 48.171 154.931 48.262 154.841"/>
   <polyline stroke-width="0.2" stroke-linejoin="round" points="47.152 150.203 47.061 150.294 47.051 150.372 47.082 150.514 47.192 150.673 47.264 150.721 47.365 150.734 47.456 150.643"/>
   <polyline stroke-width="0.2" stroke-linejoin="round" points="48.158 155.45 48.07 155.542 48.058 155.621 48.088 155.762 48.2 155.92 48.271 155.968 48.374 155.981 48.463 155.89"/>
   <line stroke-width="0.2" stroke-linejoin="round" x1="46.77" y1="149.883" x2="47.975" y2="156.164"/>
   <line stroke-width="0.2" stroke-linejoin="round" x1="47.81" y1="156.308" x2="46.564" y2="149.825"/>
   <line stroke-width="0.2" stroke-linejoin="round" x1="47.975" y1="156.164" x2="48.709" y2="156.292"/>
   <line stroke-width="0.2" stroke-linejoin="round" x1="47.81" y1="156.308" x2="47.975" y2="156.164"/>
   <line stroke-width="0.2" stroke-linejoin="round" x1="48.743" y1="156.471" x2="47.81" y2="156.308"/>
   <line stroke-width="0.2" stroke-linejoin="round" x1="46.564" y1="149.825" x2="47.499" y2="149.986"/>
   <line stroke-width="0.2" stroke-linejoin="round" x1="46.77" y1="149.883" x2="46.564" y2="149.825"/>
   <line stroke-width="0.2" stroke-linejoin="round" x1="47.503" y1="150.01" x2="46.77" y2="149.883"/>
   <polyline stroke-width="0.2" stroke-linejoin="round" points="43.469 160.479 43.015 160.521 27.399 157.813 26.897 157.605 26.423 157.176 26.05 156.593 25.833 155.944 23.995 146.366 23.969 145.75 24.137 145.259 24.472 144.972"/>
   <line stroke-width="0.2" stroke-linejoin="round" x1="53.884" y1="154.552" x2="54.042" y2="155.378"/>
   <polyline stroke-width="0.2" stroke-linejoin="round" points="52.554 155.496 52.396 154.669 52.084 154.616"/>
   <line stroke-width="0.2" stroke-linejoin="round" x1="53.884" y1="154.552" x2="52.396" y2="154.669"/>
   <line stroke-width="0.2" stroke-linejoin="round" x1="52.673" y1="154.342" x2="53.884" y2="154.552"/>
   <polyline stroke-width="0.2" stroke-linejoin="round" points="57.381 149.973 57.75 150.09 58.042 150.401 58.21 150.859 59.264 156.342 59.284 156.877 59.155 157.407 58.895 157.85 58.542 158.141 57.521 158.671 57.131 158.766 56.762 158.649"/>
   <polyline stroke-width="0.2" stroke-linejoin="round" points="47.542 158.157 47.485 158.873 47.432 159.325"/>
   <polyline stroke-width="0.4" stroke-linejoin="round" points="50.465 149.671 50.006 150.425 49.951 150.493 49.793 150.575 49.759 150.608 49.74 150.657"/>
   <line stroke-width="0.4" stroke-linejoin="round" x1="50.374" y1="149.052" x2="50.465" y2="149.671"/>
   <line stroke-width="0.4" stroke-linejoin="round" x1="50.374" y1="149.01" x2="50.374" y2="149.052"/>
   <polyline stroke-width="0.2" stroke-linejoin="round" points="48.463 155.89 48.473 155.811 48.444 155.67 48.332 155.512 48.261 155.463 48.158 155.45"/>
   <polyline stroke-width="0.2" stroke-linejoin="round" points="48.262 154.841 48.273 154.762 48.241 154.621 48.131 154.461 48.06 154.413 47.957 154.401"/>
   <polyline stroke-width="0.2" stroke-linejoin="round" points="48.06 153.792 48.072 153.711 48.04 153.57 47.929 153.412 47.857 153.365 47.756 153.352"/>
   <polyline stroke-width="0.2" stroke-linejoin="round" points="47.859 152.741 47.869 152.662 47.838 152.521 47.728 152.362 47.656 152.314 47.554 152.301"/>
   <polyline stroke-width="0.2" stroke-linejoin="round" points="47.456 150.643 47.466 150.562 47.435 150.421 47.326 150.264 47.253 150.216 47.152 150.203"/>
   <polyline stroke-width="0.2" stroke-linejoin="round" points="47.658 151.692 47.668 151.612 47.637 151.472 47.527 151.312 47.454 151.264 47.353 151.252"/>
   <line stroke-width="0.2" stroke-linejoin="round" x1="48.743" y1="156.471" x2="47.499" y2="149.986"/>
   <line stroke-width="0.2" stroke-linejoin="round" x1="48.482" y1="142.109" x2="48.954" y2="141.864"/>
   <line stroke-width="0.2" stroke-linejoin="round" x1="48.165" y1="142.156" x2="48.512" y2="142.104"/>
   <line stroke-width="0.2" stroke-linejoin="round" x1="47.832" y1="142.004" x2="48.17" y2="142.157"/>
   <line stroke-width="0.2" stroke-linejoin="round" x1="47.973" y1="142.423" x2="47.965" y2="142.406"/>
   <polyline stroke-width="0.2" stroke-linejoin="round" points="47.993 142.377 47.973 142.4 47.973 142.401 47.973 142.423"/>
   <polyline stroke-width="0.2" stroke-linejoin="round" points="48.006 142.371 45.795 143.519 45.781 143.526 47.993 142.377"/>
   <polyline stroke-width="0.2" stroke-linejoin="round" points="48.003 142.299 48.009 142.348 48.006 142.371"/>
   <polyline stroke-width="0.4" stroke-linejoin="round" points="34.767 127.361 40.213 132.189 42.411 134.342 44.484 136.796 46.371 139.489 48.003 142.299"/>
   <line stroke-width="0.4" stroke-linejoin="round" x1="33.862" y1="126.903" x2="34.767" y2="127.361"/>
   <polyline stroke-width="0.4" stroke-linejoin="round" points="25.876 142.735 30.446 128.736 30.768 128.221 30.792 128.194 32.942 127.078 33.457 126.849 33.49 126.846 33.862 126.903"/>
   <polyline stroke-width="0.4" stroke-linejoin="round" points="46.536 160.401 46.518 160.403 44.667 161.365 44.304 161.418 43.54 161.49 27.925 158.782 27.08 158.431 26.888 158.284 26.178 157.641 25.617 156.766 25.292 155.793 23.452 146.213 23.414 145.289 23.407 145.02 23.689 144.198 23.925 143.948 24.513 143.443 26.37 142.479 26.722 142.371"/>
   <polyline stroke-width="0.2" stroke-linejoin="round" points="29.227 134.861 29.195 134.86 29.236 134.861"/>
   <line stroke-width="0.2" stroke-linejoin="round" x1="29.28" y1="134.906" x2="29.243" y2="134.871"/>
   <polyline stroke-width="0.2" stroke-linejoin="round" points="29.971 138.421 29.31 134.984 29.274 134.9"/>
   <line stroke-width="0.2" stroke-linejoin="round" x1="29.969" y1="138.453" x2="29.969" y2="138.414"/>
   <line stroke-width="0.2" stroke-linejoin="round" x1="32.853" y1="134.917" x2="29.806" y2="134.388"/>
   <polyline stroke-width="0.2" stroke-linejoin="round" points="33.718 139.072 32.944 135.038 32.918 134.973 32.875 134.923"/>
   <line stroke-width="0.2" stroke-linejoin="round" x1="33.716" y1="139.103" x2="33.716" y2="139.063"/>
   <polyline stroke-width="0.2" stroke-linejoin="round" points="29.815 134.389 29.807 134.39 29.812 134.389"/>
   <polyline stroke-width="0.2" stroke-linejoin="round" points="34.533 131.049 34.509 131.05 34.579 131.07"/>
   <line stroke-width="0.2" stroke-linejoin="round" x1="36.759" y1="133.066" x2="36.755" y2="133.044"/>
   <line stroke-width="0.2" stroke-linejoin="round" x1="36.512" y1="134.754" x2="36.511" y2="134.794"/>
   <polyline stroke-width="0.2" stroke-linejoin="round" points="34.566 131.058 36.006 132.336 36.069 132.448 36.512 134.762"/>
   <line stroke-width="0.2" stroke-linejoin="round" x1="33.552" y1="135.038" x2="36.6" y2="135.566"/>
   <polyline stroke-width="0.2" stroke-linejoin="round" points="33.558 135.038 33.554 135.04 33.561 135.039"/>
   <line stroke-width="0.2" stroke-linejoin="round" x1="37.259" y1="135.671" x2="37.252" y2="135.639"/>
   <line stroke-width="0.2" stroke-linejoin="round" x1="37.463" y1="139.715" x2="37.463" y2="139.752"/>
   <polyline stroke-width="0.2" stroke-linejoin="round" points="36.622 135.572 36.665 135.623 36.691 135.688 37.465 139.721"/>
   <line stroke-width="0.2" stroke-linejoin="round" x1="36.835" y1="133.07" x2="36.798" y2="133.05"/>
   <polyline stroke-width="0.2" stroke-linejoin="round" points="39.112 135.223 39.052 135.106 37.777 133.907 36.82 133.058"/>
   <line stroke-width="0.2" stroke-linejoin="round" x1="39.131" y1="135.233" x2="39.109" y2="135.247"/>
   <line stroke-width="0.2" stroke-linejoin="round" x1="36.765" y1="133.05" x2="36.814" y2="133.044"/>
   <polyline stroke-width="0.2" stroke-linejoin="round" points="41.212 140.371 40.506 136.699 40.46 136.603 40.085 136.187"/>
   <line stroke-width="0.2" stroke-linejoin="round" x1="41.21" y1="140.401" x2="41.21" y2="140.364"/>
   <line stroke-width="0.2" stroke-linejoin="round" x1="41.246" y1="137.576" x2="41.259" y2="137.644"/>
   <polyline stroke-width="0.2" stroke-linejoin="round" points="37.308 135.688 37.301 135.691 37.305 135.688"/>
   <polyline stroke-width="0.2" stroke-linejoin="round" points="40.09 136.192 40.045 136.163 37.299 135.687"/>
   <polyline stroke-width="0.2" stroke-linejoin="round" points="43.604 140.801 43.573 140.711 41.34 137.643"/>
   <line stroke-width="0.2" stroke-linejoin="round" x1="43.579" y1="140.848" x2="43.598" y2="140.824"/>
   <line stroke-width="0.2" stroke-linejoin="round" x1="41.267" y1="137.61" x2="41.304" y2="137.609"/>
   <polyline stroke-width="0.2" stroke-linejoin="round" points="32.926 129.905 33.593 130.758 33.947 131.789"/>
   <polyline stroke-width="0.2" stroke-linejoin="round" points="31.673 129.567 32.155 129.478 32.932 129.909"/>
   <polyline stroke-width="0.2" stroke-linejoin="round" points="32.468 133.194 32.75 133.353 33.457 133.271 33.895 132.693 33.945 131.787"/>
   <line stroke-width="0.2" stroke-linejoin="round" x1="30.057" y1="139.225" x2="27.916" y2="138.854"/>
   <polyline stroke-width="0.2" stroke-linejoin="round" points="30.836 142.935 30.149 139.348 30.123 139.283 30.08 139.231"/>
   <line stroke-width="0.2" stroke-linejoin="round" x1="30.832" y1="142.961" x2="30.835" y2="142.925"/>
   <polyline stroke-width="0.2" stroke-linejoin="round" points="49.118 155.558 49.098 156.146 48.884 156.598 47.542 158.157"/>
   <polyline stroke-width="0.2" stroke-linejoin="round" points="46.731 146.896 46.838 147.001 47.268 148.105 48.427 151.853 49.119 155.564"/>
   <line stroke-width="0.2" stroke-linejoin="round" x1="44.945" y1="146.599" x2="46.749" y2="146.913"/>
   <polyline stroke-width="0.2" stroke-linejoin="round" points="44.969 146.604 44.969 146.604 44.97 146.604"/>
   <line stroke-width="0.2" stroke-linejoin="round" x1="44.142" y1="141.668" x2="41.999" y2="141.295"/>
   <polyline stroke-width="0.2" stroke-linejoin="round" points="46.468 146.111 46.451 146.032 45.398 143.842 44.207 141.723 44.115 141.649"/>
   <line stroke-width="0.2" stroke-linejoin="round" x1="46.448" y1="146.133" x2="46.465" y2="146.088"/>
   <polyline stroke-width="0.2" stroke-linejoin="round" points="42.008 141.298 42 141.299 42.005 141.298"/>
   <line stroke-width="0.2" stroke-linejoin="round" x1="41.951" y1="141.247" x2="41.957" y2="141.28"/>
   <polyline stroke-width="0.2" stroke-linejoin="round" points="38.261 140.647 38.253 140.65 38.258 140.647"/>
   <line stroke-width="0.2" stroke-linejoin="round" x1="41.298" y1="141.175" x2="38.252" y2="140.646"/>
   <polyline stroke-width="0.2" stroke-linejoin="round" points="42.078 144.883 41.39 141.296 41.365 141.233 41.322 141.181"/>
   <line stroke-width="0.2" stroke-linejoin="round" x1="42.073" y1="144.911" x2="42.076" y2="144.875"/>
   <line stroke-width="0.2" stroke-linejoin="round" x1="38.204" y1="140.598" x2="38.21" y2="140.631"/>
   <polyline stroke-width="0.2" stroke-linejoin="round" points="34.514 139.998 34.506 140 34.511 139.997"/>
   <line stroke-width="0.2" stroke-linejoin="round" x1="37.551" y1="140.525" x2="34.505" y2="139.997"/>
   <polyline stroke-width="0.2" stroke-linejoin="round" points="38.331 144.234 37.643 140.647 37.618 140.582 37.575 140.531"/>
   <line stroke-width="0.2" stroke-linejoin="round" x1="38.326" y1="144.262" x2="38.329" y2="144.224"/>
   <line stroke-width="0.2" stroke-linejoin="round" x1="33.804" y1="139.876" x2="30.757" y2="139.347"/>
   <polyline stroke-width="0.2" stroke-linejoin="round" points="34.584 143.585 33.896 139.997 33.871 139.932 33.828 139.882"/>
   <line stroke-width="0.2" stroke-linejoin="round" x1="34.579" y1="143.611" x2="34.582" y2="143.575"/>
   <line stroke-width="0.2" stroke-linejoin="round" x1="34.457" y1="139.949" x2="34.463" y2="139.98"/>
   <polyline stroke-width="0.2" stroke-linejoin="round" points="30.766 139.348 30.76 139.349 30.763 139.348"/>
   <polyline stroke-width="0.2" stroke-linejoin="round" points="43.642 160.33 43.325 160.36 27.71 157.653 27.207 157.444 26.734 157.015 26.532 156.741 26.359 156.432 26.143 155.783 24.304 146.205 24.277 145.588 24.446 145.099 24.609 144.959"/>
   <polyline stroke-width="0.2" stroke-linejoin="round" points="24.472 144.972 24.926 144.929 40.542 147.637 41.045 147.846 41.518 148.274 41.892 148.856 42.109 149.507 43.948 159.086 43.973 159.701 43.805 160.191 43.469 160.479"/>
   <polyline stroke-width="0.2" stroke-linejoin="round" points="53.357 140.283 53.247 140.067 53.226 140.055 53.21 140.045 53.194 140.045 52.5 140.252"/>
   <polyline stroke-width="0.2" stroke-linejoin="round" points="53.42 140.317 53.393 140.318 53.359 140.3 53.372 140.307"/>
   <polyline stroke-width="0.2" stroke-linejoin="round" points="54.161 144.078 54.947 143.592 54.963 143.58 54.97 143.57 54.973 143.556 54.972 143.544 54.97 143.533 53.534 140.308 53.527 140.3 53.521 140.294 53.506 140.286 53.496 140.286 53.475 140.288 52.671 140.704"/>
   <polyline stroke-width="0.2" stroke-linejoin="round" points="54.856 143.649 54.854 143.657 54.856 143.647"/>
   <polyline stroke-width="0.2" stroke-linejoin="round" points="54.319 144.372 54.926 143.899 54.93 143.894 54.938 143.873 54.938 143.868 54.935 143.852 54.862 143.665"/>
   <line stroke-width="0.2" stroke-linejoin="round" x1="50.511" y1="146.55" x2="50.947" y2="146.324"/>
   <polyline stroke-width="0.2" stroke-linejoin="round" points="50.148 147.118 50.228 146.83 50.52 146.54"/>
   <polyline stroke-width="0.2" stroke-linejoin="round" points="50.084 146.923 50.067 146.902 50.003 146.852"/>
   <line stroke-width="0.4" stroke-linejoin="round" x1="50.698" y1="148.805" x2="50.084" y2="146.923"/>
   <line stroke-width="0.2" stroke-linejoin="round" x1="49.121" y1="152.062" x2="50.029" y2="152.219"/>
   <polyline stroke-width="0.2" stroke-linejoin="round" points="49.145 152.067 49.143 152.068 49.128 152.07 49.146 152.067"/>
   <line stroke-width="0.2" stroke-linejoin="round" x1="49.78" y1="156.419" x2="50.871" y2="156.609"/>
   <polyline stroke-width="0.2" stroke-linejoin="round" points="49.878 156.98 49.944 156.984 50.978 157.163"/>
   <polyline stroke-width="0.2" stroke-linejoin="round" points="45.335 161.018 46.057 160.858 46.613 160.568 48.207 159.741 48.807 159.379 48.831 159.354 50.752 157.123"/>
   <line stroke-width="0.2" stroke-linejoin="round" x1="42.411" y1="161.443" x2="42.789" y2="161.36"/>
   <line stroke-width="0.2" stroke-linejoin="round" x1="41.656" y1="161.836" x2="42.411" y2="161.443"/>
   <polyline stroke-width="0.2" stroke-linejoin="round" points="31.082 159.33 31.457 159.49 39.64 162.075 40.353 162.122 40.387 162.117 41.656 161.836"/>
   <line stroke-width="0.2" stroke-linejoin="round" x1="52.084" y1="154.616" x2="52.673" y2="154.342"/>
   <polyline stroke-width="0.2" stroke-linejoin="round" points="52.554 155.496 52.241 155.442 52.084 154.616"/>
   <line stroke-width="0.2" stroke-linejoin="round" x1="54.042" y1="155.378" x2="52.554" y2="155.496"/>
   <polygon stroke-width="0.2" stroke-linejoin="round" points="49.74 150.657 49.756 150.616 49.74 150.657 49.74 150.657"/>
   <polyline stroke-width="0.4" stroke-linejoin="round" points="51.189 158.057 51.156 158.037 51.137 157.992 49.74 150.711 49.74 150.704 49.74 150.657"/>
   <line stroke-width="0.2" stroke-linejoin="round" x1="56.246" y1="158.942" x2="51.204" y2="158.067"/>
   <polyline stroke-width="0.4" stroke-linejoin="round" points="57.334 159.687 52.292 158.812 52.277 158.804 52.25 158.786 52.235 158.752 52.134 158.229"/>
   <polyline stroke-width="0.4" stroke-linejoin="round" points="57.621 158.883 57.619 158.901 57.719 159.431 57.722 159.467 57.71 159.497 57.689 159.52 57.661 159.538 57.334 159.687"/>
   <polyline stroke-width="0.4" stroke-linejoin="round" points="51.703 148.96 51.804 148.907 52.274 148.794 52.29 148.79 57.334 149.664 57.78 149.806 57.814 149.828 58.164 150.201 58.366 150.751 59.42 156.235 59.445 156.877 59.445 156.881 59.292 157.501 59.289 157.513 58.976 158.045 58.552 158.395 57.621 158.883"/>
   <polyline stroke-width="0.2" stroke-linejoin="round" points="55.96 150.253 55.962 150.256 55.96 150.253"/>
   <polyline stroke-width="0.2" stroke-linejoin="round" points="55.966 150.286 55.969 150.296 55.966 150.287"/>
   <polyline stroke-width="0.2" stroke-linejoin="round" points="55.832 149.693 55.859 149.739 55.966 150.292"/>
   <polyline stroke-width="0.2" stroke-linejoin="round" points="50.374 149.01 50.374 149.009 50.39 148.971 50.417 148.945 50.695 148.8 50.71 148.799 50.743 148.794 55.786 149.668 55.804 149.675"/>
   <line stroke-width="0.4" stroke-linejoin="round" x1="50.386" y1="148.979" x2="50.374" y2="149.01"/>
   <polyline stroke-width="0.4" stroke-linejoin="round" points="57.381 149.973 56.991 150.067 55.97 150.597 55.618 150.888 55.357 151.332 55.228 151.861 55.25 152.395 56.302 157.879 56.472 158.337 56.762 158.649"/>
   <line stroke-width="0.2" stroke-linejoin="round" x1="54.121" y1="141.626" x2="55.177" y2="141.078"/>
   <line stroke-width="0.2" stroke-linejoin="round" x1="54.124" y1="141.629" x2="55.204" y2="141.068"/>
   <line stroke-width="0.2" stroke-linejoin="round" x1="54.843" y1="143.246" x2="55.871" y2="142.711"/>
   <line stroke-width="0.2" stroke-linejoin="round" x1="54.845" y1="143.252" x2="55.899" y2="142.705"/>
   <line stroke-width="0.2" stroke-linejoin="round" x1="54.429" y1="139.457" x2="53.25" y2="140.069"/>
   <line stroke-width="0.2" stroke-linejoin="round" x1="54.402" y1="139.469" x2="53.249" y2="140.068"/>
   <polyline stroke-width="0.2" stroke-linejoin="round" points="24.303 135.931 24.64 136.241 24.559 136.927 24.08 137.807 23.335 138.645 22.519 139.213 22.149 139.348 21.855 139.364"/>
   <polyline stroke-width="0.2" stroke-linejoin="round" points="18.157 159.478 18.493 159.788 18.413 160.474 17.934 161.354 17.187 162.192 16.373 162.762 15.708 162.911"/>
   <polyline stroke-width="0.2" stroke-linejoin="round" points="41.777 114.713 42.115 115.024 42.033 115.71 41.555 116.59 40.808 117.427 39.993 117.996 39.329 118.147"/>
   <polyline stroke-width="0.2" stroke-linejoin="round" points="48.753 141.704 48.116 141.455 47.902 141.475"/>
   <polyline stroke-width="0.2" stroke-linejoin="round" points="51.021 146.501 50.896 146.204 49.795 144.248 49.094 142.159 48.954 141.866 48.728 141.686"/>
   <polyline stroke-width="0.2" stroke-linejoin="round" points="50.719 147.292 50.996 146.734 51.018 146.497 51.021 146.485"/>
   <line stroke-width="0.2" stroke-linejoin="round" x1="50.64" y1="147.364" x2="50.72" y2="147.288"/>
   <polyline stroke-width="0.2" stroke-linejoin="round" points="54.679 145.385 54.793 145.435 55.375 145.693 56.159 146.031 56.411 146.135"/>
   <polyline stroke-width="0.4" stroke-linejoin="round" points="52.06 139.51 52.195 139.799 52.484 140.211 52.664 140.683 53.286 142.512 54.243 144.225 54.476 144.68 54.582 145.155 54.689 145.405"/>
   <polyline stroke-width="0.2" stroke-linejoin="round" points="52.414 137.274 52.432 137.211 52.363 137.514 52.183 138.531 52.087 139.364 52.064 139.518"/>
   <polyline stroke-width="0.2" stroke-linejoin="round" points="55.899 142.705 56.06 143.117 54.886 143.728"/>
   <line stroke-width="0.2" stroke-linejoin="round" x1="55.871" y1="142.711" x2="55.899" y2="142.705"/>
   <line stroke-width="0.2" stroke-linejoin="round" x1="55.204" y1="141.068" x2="55.177" y2="141.078"/>
   <polyline stroke-width="0.2" stroke-linejoin="round" points="54.304 142.037 55.387 141.475 55.204 141.068"/>
   <line stroke-width="0.2" stroke-linejoin="round" x1="54.429" y1="139.457" x2="54.402" y2="139.469"/>
   <polyline stroke-width="0.2" stroke-linejoin="round" points="53.576 140.403 54.63 139.856 54.429 139.457"/>
   <polyline stroke-width="0.2" stroke-linejoin="round" points="21.855 139.364 21.518 139.054 21.599 138.366 22.077 137.487 22.824 136.651 23.638 136.08 24.303 135.931"/>
   <line stroke-width="0.2" stroke-linejoin="round" x1="22.228" y1="154.695" x2="21.966" y2="154.807"/>
   <polyline stroke-width="0.2" stroke-linejoin="round" points="27.894 158.77 27.704 158.867 27.411 158.968 27.318 158.979 27.111 158.941 27.018 158.895 22.425 154.823 22.265 154.706 22.143 154.669"/>
   <polyline stroke-width="0.2" stroke-linejoin="round" points="26.603 159.813 26.356 159.7 20.542 157.436 20.332 157.389"/>
   <line stroke-width="0.2" stroke-linejoin="round" x1="20.446" y1="157.414" x2="20.347" y2="157.438"/>
   <line stroke-width="0.2" stroke-linejoin="round" x1="20.466" y1="157.407" x2="20.474" y2="157.405"/>
   <polyline stroke-width="0.2" stroke-linejoin="round" points="15.708 162.911 15.371 162.6 15.451 161.913 15.929 161.034 16.676 160.198 17.492 159.627 18.157 159.478"/>
   <polyline stroke-width="0.2" stroke-linejoin="round" points="39.329 118.147 38.991 117.837 39.073 117.15 39.551 116.269 40.298 115.433 41.112 114.864 41.777 114.713"/>
   <polyline stroke-width="0.4" stroke-linejoin="round" points="40.154 110.808 40.012 110.676 39.886 110.668 39.112 110.692 38.115 111.15 37.034 111.974 36.557 112.433 36.189 112.765 35.478 113.703 35.475 113.709"/>
   <polyline stroke-width="0.2" stroke-linejoin="round" points="28.121 121.471 27.954 121.322 27.917 121.305 27.532 121.248 27.329 121.259 27.076 121.35 27.024 121.379 26.759 121.539 26.495 121.751 26.24 122.004 26.009 122.296 25.698 122.867 25.675 122.921 25.618 123.393 25.721 123.766 25.742 123.801 25.989 124.027"/>
   <line stroke-width="0.2" stroke-linejoin="round" x1="23.521" y1="159.947" x2="22.599" y2="159.018"/>
   <line stroke-width="0.2" stroke-linejoin="round" x1="23.295" y1="160.556" x2="23.274" y2="160.58"/>
   <polyline stroke-width="0.2" stroke-linejoin="round" points="23.896 159.117 23.879 159.245 23.295 160.56"/>
   <polyline stroke-width="0.2" stroke-linejoin="round" points="23.6 158.627 23.71 158.739 23.841 158.926 23.902 159.141"/>
   <polyline stroke-width="0.2" stroke-linejoin="round" points="22.728 159.304 22.635 159.161 22.593 158.997 22.612 158.858 22.846 158.332"/>
   <polyline stroke-width="0.2" stroke-linejoin="round" points="16.166 152.752 16.111 152.55 16.166 152.085 16.187 152.032 16.493 151.468 16.972 150.932 17.495 150.568 17.545 150.538 17.704 150.502"/>
   <polyline stroke-width="0.4" stroke-linejoin="round" points="51.884 158.185 51.732 158.43 51.509 158.742 51.404 158.883 51.259 159.103 51.237 159.127 50.981 159.346 48.198 160.758 47.665 160.918 47.633 160.923 45.335 161.018"/>
   <polyline stroke-width="0.4" stroke-linejoin="round" points="48.295 128.943 50.17 130.802 52.167 133.17 53.984 135.77 55.572 138.521 56.921 141.4 58.015 144.378 58.817 147.376 59.311 150.306 59.314 150.353 59.296 150.786 59.142 151.11 58.564 151.78"/>
   <polyline stroke-width="0.4" stroke-linejoin="round" points="40.106 110.766 40.149 110.805 40.213 110.843 42.898 113.222 43.35 113.644 43.371 113.679 43.418 114.483 43.417 114.519 43.058 115.587 42.993 115.731 41.798 118.599 41.737 119.415 42.11 120.236 42.942 121.283 43.195 121.718 43.966 123.201 45.057 124.852 47.378 128.009 48.295 128.943"/>
   <polyline stroke-width="0.4" stroke-linejoin="round" points="23.875 165.883 23.945 165.927 24.695 166.592 24.731 166.62 24.78 166.649 24.836 166.658 24.876 166.657 24.96 166.639 25.208 166.509"/>
   <polyline stroke-width="0.4" stroke-linejoin="round" points="18.984 163.465 23.521 165.739 23.536 165.746 23.919 165.907"/>
   <line stroke-width="0.4" stroke-linejoin="round" x1="18.672" y1="163.365" x2="18.984" y2="163.465"/>
   <polyline stroke-width="0.4" stroke-linejoin="round" points="16.53 163.82 16.762 163.894 16.826 163.899 16.91 163.887 18.672 163.365"/>
   <polyline stroke-width="0.4" stroke-linejoin="round" points="16.24 152.643 14.532 155.139 12.577 157.608 11.775 158.699 11.243 159.772 11.048 160.686 11.044 160.78 11.211 161.431 11.237 161.479 14.012 163.955 14.528 164.247 14.621 164.292 15.416 164.182 15.5 164.169 16.541 163.817"/>
   <polyline stroke-width="0.2" stroke-linejoin="round" points="16.617 152.403 16.318 152.56 16.24 152.643"/>
   <polyline stroke-width="0.4" stroke-linejoin="round" points="20.254 142.788 20.126 143.973 19.847 145.282 19.42 146.677 18.844 148.168 18.118 149.73 17.254 151.342 16.475 152.641 16.437 152.698"/>
   <polyline stroke-width="0.4" stroke-linejoin="round" points="19.772 140.02 20.05 140.717 20.233 141.715 20.256 142.836"/>
   <polyline stroke-width="0.4" stroke-linejoin="round" points="19.187 133.491 19.103 133.568 18.414 134.364 18.234 134.633 17.873 135.234 17.396 136.209 17.199 137.052 17.195 137.145 17.297 137.783 17.352 137.872 20.097 140.306 20.496 140.657"/>
   <polyline stroke-width="0.4" stroke-linejoin="round" points="36.661 112.608 36.554 112.701 36.323 112.903 36.279 112.941 34.468 114.673 31.786 117.393 29.167 120.246 26.643 123.203 24.242 126.227 21.99 129.287 19.913 132.344 19.187 133.491"/>
   <polyline stroke-width="0.2" stroke-linejoin="round" points="31.605 131.038 31.597 131.086 31.652 131.24 31.71 131.614 31.693 131.705 31.722 131.814 31.786 131.911 31.911 131.977 32.192 132.212 32.253 132.304 32.286 132.325"/>
   <polyline stroke-width="0.2" stroke-linejoin="round" points="31.617 130.961 31.501 131.044 31.435 131.151"/>
   <polyline stroke-width="0.2" stroke-linejoin="round" points="31.512 129.813 32.128 129.722 32.823 130.09 33.411 130.818 33.734 131.715 33.706 132.538 33.332 133.066"/>
   <line stroke-width="0.2" stroke-linejoin="round" x1="32.13" y1="132.391" x2="32.246" y2="132.384"/>
   <polyline stroke-width="0.2" stroke-linejoin="round" points="31.222 131.171 31.173 131.233 31.166 131.325 31.222 131.462 31.312 131.656 31.28 131.836 31.303 132.07 31.483 132.199 31.647 132.26 31.763 132.435 31.817 132.524 31.893 132.581 31.972 132.592"/>
   <line stroke-width="0.2" stroke-linejoin="round" x1="31.082" y1="130.338" x2="31.088" y2="130.283"/>
   <polyline stroke-width="0.2" stroke-linejoin="round" points="31.083 130.337 31.088 130.246 31.486 129.681 31.518 129.647 31.673 129.567"/>
   <line stroke-width="0.2" stroke-linejoin="round" x1="31.085" y1="130.336" x2="31.088" y2="130.283"/>
   <polyline stroke-width="0.2" stroke-linejoin="round" points="31.435 131.151 31.303 131.165 31.222 131.171"/>
   <line stroke-width="0.2" stroke-linejoin="round" x1="31.667" y1="130.997" x2="31.435" y2="131.151"/>
   <line stroke-width="0.2" stroke-linejoin="round" x1="32.13" y1="132.391" x2="32.377" y2="132.288"/>
   <polyline stroke-width="0.2" stroke-linejoin="round" points="31.972 132.592 32.048 132.507 32.13 132.391"/>
   <polyline stroke-width="0.2" stroke-linejoin="round" points="32.246 132.384 32.371 132.32 32.371 132.319 32.378 132.294 32.331 132.086 32.264 131.882 32.273 131.712 32.243 131.487 32.24 131.483 32.072 131.349 31.928 131.276 31.789 131.114 31.634 130.965 31.617 130.961"/>
   <polyline stroke-width="0.2" stroke-linejoin="round" points="33.332 133.066 32.994 133.116 32.414 133.203 32.146 133.068 31.594 132.776 31.126 132.197 30.87 131.485 30.893 130.831 30.931 130.555 31.282 130.057 31.512 129.813"/>
   <line stroke-width="0.2" stroke-linejoin="round" x1="23.157" y1="158.968" x2="23.352" y2="158.53"/>
   <polyline stroke-width="0.4" stroke-linejoin="round" points="30.905 164.331 25.884 166.938 25.763 166.973 25.71 166.978 25.664 166.951 25.597 166.901 25.202 166.504 25.176 166.457 25.181 166.405 25.201 166.295 28.289 159.338 28.382 159.191 28.521 159.046 28.673 158.942 28.716 158.919"/>
   <line stroke-width="0.2" stroke-linejoin="round" x1="23.542" y1="160.003" x2="23.157" y2="158.968"/>
   <polyline stroke-width="0.2" stroke-linejoin="round" points="16.856 160.242 17.78 161.062 17.964 161.032"/>
   <polyline stroke-width="0.2" stroke-linejoin="round" points="15.836 162.442 16.234 162.433 16.766 162.155 17.321 161.663 17.78 161.062"/>
   <polyline stroke-width="0.2" stroke-linejoin="round" points="15.503 161.819 15.419 162.381 15.64 162.695 16.12 162.681"/>
   <polyline stroke-width="0.2" stroke-linejoin="round" points="18.312 159.842 18.001 159.556 17.399 159.693"/>
   <polyline stroke-width="0.2" stroke-linejoin="round" points="17.818 159.813 18.079 160.052 18.015 160.585 17.867 160.911"/>
   <polyline stroke-width="0.2" stroke-linejoin="round" points="23.001 136.695 23.926 137.515 24.111 137.485"/>
   <polyline stroke-width="0.2" stroke-linejoin="round" points="21.862 138.796 21.983 138.895 22.157 138.926 22.382 138.887 22.914 138.608 23.468 138.116 23.719 137.818 23.926 137.515"/>
   <polyline stroke-width="0.2" stroke-linejoin="round" points="21.649 138.272 21.565 138.834 21.786 139.149 22.268 139.133"/>
   <polyline stroke-width="0.2" stroke-linejoin="round" points="24.458 136.295 24.147 136.009 23.547 136.145"/>
   <polyline stroke-width="0.2" stroke-linejoin="round" points="23.964 136.266 24.225 136.506 24.163 137.037 24.015 137.364"/>
   <polyline stroke-width="0.2" stroke-linejoin="round" points="40.466 115.468 41.402 116.298 41.585 116.269"/>
   <polyline stroke-width="0.2" stroke-linejoin="round" points="39.457 117.677 39.856 117.67 40.387 117.391 40.942 116.899 41.402 116.298"/>
   <polyline stroke-width="0.2" stroke-linejoin="round" points="39.125 117.055 39.039 117.617 39.261 117.93 39.741 117.917"/>
   <polyline stroke-width="0.2" stroke-linejoin="round" points="41.932 115.078 41.621 114.793 41.021 114.927"/>
   <polyline stroke-width="0.2" stroke-linejoin="round" points="41.439 115.049 41.7 115.289 41.637 115.819 41.488 116.147"/>
   <line stroke-width="0.2" stroke-linejoin="round" x1="17.867" y1="160.911" x2="17.001" y2="160.141"/>
   <polyline stroke-width="0.2" stroke-linejoin="round" points="18.312 159.842 18.236 160.477 18.053 160.881 17.867 160.911"/>
   <line stroke-width="0.2" stroke-linejoin="round" x1="18.318" y1="159.633" x2="18.312" y2="159.842"/>
   <polyline stroke-width="0.2" stroke-linejoin="round" points="17.964 161.032 17.423 161.747 16.76 162.341 16.12 162.681"/>
   <polyline stroke-width="0.2" stroke-linejoin="round" points="17.818 159.813 17.303 159.93 16.673 160.37 16.097 161.016 15.727 161.697 15.653 162.177 15.836 162.442"/>
   <line stroke-width="0.2" stroke-linejoin="round" x1="24.015" y1="137.364" x2="23.146" y2="136.594"/>
   <polyline stroke-width="0.2" stroke-linejoin="round" points="24.458 136.295 24.384 136.93 24.199 137.334 24.015 137.364"/>
   <line stroke-width="0.2" stroke-linejoin="round" x1="24.464" y1="136.085" x2="24.458" y2="136.295"/>
   <polyline stroke-width="0.2" stroke-linejoin="round" points="24.111 137.485 23.571 138.199 22.907 138.794 22.268 139.133"/>
   <polyline stroke-width="0.2" stroke-linejoin="round" points="23.964 136.266 23.451 136.382 22.821 136.823 22.242 137.469 21.873 138.15 21.8 138.631 21.862 138.796"/>
   <line stroke-width="0.2" stroke-linejoin="round" x1="41.488" y1="116.147" x2="40.601" y2="115.359"/>
   <polyline stroke-width="0.2" stroke-linejoin="round" points="41.932 115.078 41.857 115.712 41.673 116.117 41.488 116.147"/>
   <line stroke-width="0.2" stroke-linejoin="round" x1="41.939" y1="114.868" x2="41.932" y2="115.078"/>
   <polyline stroke-width="0.2" stroke-linejoin="round" points="41.585 116.269 41.045 116.983 40.381 117.576 39.741 117.917"/>
   <polyline stroke-width="0.2" stroke-linejoin="round" points="41.439 115.049 40.924 115.165 40.609 115.353 40.295 115.605 39.718 116.253 39.347 116.933 39.274 117.414 39.457 117.677"/>
   <polygon stroke-width="0.2" stroke-linejoin="round" points="88.769 193.989 88.424 194.401 88.391 195.02 88.569 195.437 88.569 195.441 89.403 196.758 89.519 196.943 93.521 203.537 95.45 206.877 99.162 213.639 102.668 220.489 104.34 223.942 107.522 230.896 107.584 231.04 108.287 232.653 108.287 232.657 108.525 233.024 109.043 233.319 109.561 233.229 109.935 232.806 110.049 232.306 109.935 231.705 109.933 231.703 109.233 230.09 109.168 229.945 105.987 222.991 104.314 219.538 100.81 212.687 97.099 205.926 95.168 202.586 91.167 195.991 91.051 195.807 90.216 194.489 90.215 194.486 89.909 194.145 89.314 193.887 88.769 193.989"/>
   <polygon stroke-width="0.2" stroke-linejoin="round" points="91.977 195.272 92.093 195.456 96.094 202.05 98.025 205.391 101.736 212.152 105.242 219.002 106.914 222.455 110.096 229.411 110.159 229.555 110.861 231.168 110.861 231.17 111.099 231.538 111.618 231.834 112.135 231.743 112.509 231.319 112.623 230.819 112.509 230.218 112.507 230.217 111.807 228.604 111.742 228.46 108.561 221.504 106.888 218.051 103.384 211.201 99.673 204.441 97.742 201.099 93.74 194.506 93.625 194.322 92.79 193.002 92.79 193.001 92.483 192.659 91.888 192.401 91.343 192.502 90.998 192.915 90.965 193.534 91.143 193.951 91.144 193.954 91.977 195.272"/>
   <polygon stroke-width="0.2" stroke-linejoin="round" points="113.962 223.32 114.498 223.626 115.006 223.537 115.365 223.126 115.465 222.506 115.346 222.049 113.23 217.536 108.992 209.106 105.68 202.998 103.477 199.139 98.885 191.534 98.769 191.35 97.936 190.032 97.935 190.03 97.602 189.675 97.078 189.454 96.527 189.551 96.18 189.973 96.177 190.643 96.325 190.96 96.325 190.961 97.159 192.281 97.275 192.465 101.867 200.068 104.069 203.929 107.381 210.037 111.618 218.465 113.736 222.979 113.962 223.32"/>
   <polygon stroke-width="0.2" stroke-linejoin="round" points="102.246 202.954 100.316 199.614 96.314 193.02 96.198 192.836 95.365 191.516 95.364 191.514 95.057 191.173 94.462 190.914 93.918 191.016 93.572 191.43 93.54 192.049 93.716 192.466 93.718 192.467 94.552 193.787 94.667 193.971 98.67 200.564 100.599 203.906 104.311 210.667 107.816 217.516 109.487 220.969 112.67 227.925 112.733 228.068 113.435 229.681 113.436 229.683 113.674 230.051 114.192 230.348 114.709 230.258 115.082 229.834 115.197 229.334 115.082 228.733 115.081 228.729 114.381 227.117 114.317 226.973 111.135 220.018 109.462 216.566 105.959 209.716 102.246 202.954"/>
   <polyline stroke-width="0.4" stroke-linejoin="round" points="30.797 171.313 31.481 172.032 32.959 174.372 34.256 176.057 35.828 177.461 37.585 178.502 39.429 179.122 67.173 185.025 68.364 185.34 70.713 186.322 72.923 187.674 75.004 189.316 76.391 190.667 77.183 191.588 77.475 191.957 101.564 222.423"/>
   <polyline stroke-width="0.4" stroke-linejoin="round" points="32.543 161.217 31.528 161.745 31.367 161.873 31.239 162.062 31.172 162.265 30.097 170.562 30.135 170.879 30.326 171.026 30.847 171.367"/>
   <polyline stroke-width="0.4" stroke-linejoin="round" points="32.722 159.889 32.421 162.122 32.345 162.293"/>
   <polyline stroke-width="0.4" stroke-linejoin="round" points="115.179 230.657 114.436 231.335 114.387 231.371 113.706 231.788 113.269 232.039 112.897 232.256 111.153 233.263 110.85 233.437 110.313 233.747 109.799 234.02 109.715 234.06 109.423 234.116 108.412 234.056 108.287 234.02 107.331 233.584 106.507 232.813 105.89 231.786 101.92 223.127 97.599 214.556 92.953 206.128 88.01 197.891 87.498 196.778 87.307 195.62 87.456 194.526 87.709 193.925 87.989 193.485 88.762 192.812 88.93 192.676 94.932 189.212 95.878 188.877 95.936 188.864 96.986 188.864 98.049 189.199 99.028 189.842 99.832 190.733 99.962 190.929 104.158 197.852 108.147 204.912 111.912 212.08 115.441 219.324 115.862 220.719 115.921 221.444 115.924 226.131 115.903 228.329 115.728 229.558 115.528 230.123 115.174 230.668 115.075 230.751"/>
   <polyline stroke-width="0.4" stroke-linejoin="round" points="48.194 163.211 47.588 162.436 47.076 161.397 46.948 160.95"/>
   <polyline stroke-width="0.4" stroke-linejoin="round" points="90.734 191.635 90.218 191.144 89.016 189.355 85.765 183.305 84.745 181.591 83.581 179.977 82.29 178.483 80.888 177.127 79.388 175.929 77.814 174.9 76.185 174.055 74.519 173.405 59.95 168.627 57.264 167.687 54.722 166.677 52.341 165.602 50.149 164.461 48.908 163.768 48.194 163.211"/>
  </g>
  <g>
   <line stroke-width="0.2" stroke-linejoin="round" x1="55.792" y1="193.127" x2="54.984" y2="193.021"/>
   <line stroke-width="0.2" stroke-linejoin="round" x1="56.326" y1="192.991" x2="55.792" y2="193.127"/>
   <polyline stroke-width="0.2" stroke-linejoin="round" points="53.704 195.835 53.962 195.969 54.402 195.818 54.909 195.423 55.345 194.888 55.595 194.356 55.591 193.973"/>
   <polyline stroke-width="0.2" stroke-linejoin="round" points="54.212 194.038 53.484 194.931 53.069 195.816"/>
   <line stroke-width="0.2" stroke-linejoin="round" x1="54.212" y1="194.038" x2="53.168" y2="194.813"/>
   <line stroke-width="0.2" stroke-linejoin="round" x1="54.984" y1="193.021" x2="53.792" y2="191.966"/>
   <line stroke-width="0.2" stroke-linejoin="round" x1="54.212" y1="194.038" x2="54.984" y2="193.021"/>
   <polyline stroke-width="0.2" stroke-linejoin="round" points="55.792 193.127 55.057 193.378 54.212 194.038"/>
   <polyline stroke-width="0.2" stroke-linejoin="round" points="56.226 193.991 56.219 193.352 55.792 193.127"/>
   <polyline stroke-width="0.2" stroke-linejoin="round" points="53.792 191.966 53.375 192.52 52.981 192.949 52.548 193.337 51.978 193.758"/>
   <polyline stroke-width="0.2" stroke-linejoin="round" points="55.136 191.935 54.845 192.01 54.561 192.037 54.234 192.025 53.792 191.966"/>
   <polyline stroke-width="0.2" stroke-linejoin="round" points="53.069 195.816 53.076 196.455 53.505 196.681 54.24 196.43"/>
   <polyline stroke-width="0.2" stroke-linejoin="round" points="51.978 193.758 51.84 194.725 51.71 195.108 51.506 195.52"/>
   <line stroke-width="0.2" stroke-linejoin="round" x1="53.168" y1="194.813" x2="51.978" y2="193.758"/>
   <line stroke-width="0.2" stroke-linejoin="round" x1="53.069" y1="195.816" x2="53.168" y2="194.813"/>
   <line stroke-width="0.2" stroke-linejoin="round" x1="52.697" y1="196.575" x2="53.069" y2="195.816"/>
   <polyline stroke-width="0.2" stroke-linejoin="round" points="51.162 196.028 50.92 195.782 50.837 195.382 50.911 194.872 51.131 194.28 51.5 193.616 51.987 192.95 52.533 192.349 53.122 191.83 53.732 191.413 54.302 191.147 54.777 191.055 55.143 191.128"/>
   <polyline stroke-width="0.2" stroke-linejoin="round" points="55.591 193.973 55.334 193.837 54.893 193.989 54.387 194.384 53.95 194.919 53.701 195.45 53.704 195.835"/>
   <polyline stroke-width="0.2" stroke-linejoin="round" points="55.143 191.128 55.384 191.373 55.469 191.776 55.411 192.179"/>
   <polyline stroke-width="0.2" stroke-linejoin="round" points="51.162 196.028 50.826 195.73 50.585 195.485 50.502 195.084 50.575 194.575 50.796 193.981 51.165 193.318 51.651 192.653 52.198 192.052 52.786 191.532 53.398 191.115 53.968 190.85 54.441 190.758 54.807 190.83 55.143 191.128"/>
   <polyline stroke-width="0.2" stroke-linejoin="round" points="52.039 195.992 52.003 196.008 51.53 196.102 51.162 196.028"/>
   <line stroke-width="0.2" stroke-linejoin="round" x1="56.326" y1="192.991" x2="55.136" y2="191.935"/>
   <line stroke-width="0.2" stroke-linejoin="round" x1="56.226" y1="193.991" x2="56.326" y2="192.991"/>
   <polyline stroke-width="0.2" stroke-linejoin="round" points="54.24 196.43 55.084 195.769 55.811 194.877 56.226 193.991"/>
   <polyline stroke-width="0.2" stroke-linejoin="round" points="53.505 196.681 54.039 196.544 54.24 196.43"/>
   <line stroke-width="0.2" stroke-linejoin="round" x1="52.697" y1="196.575" x2="53.505" y2="196.681"/>
   <line stroke-width="0.2" stroke-linejoin="round" x1="51.506" y1="195.52" x2="52.697" y2="196.575"/>
  </g>
  <g>
   <line stroke="#FFFFFF" stroke-width="2" stroke-linejoin="round" x1="50.789" y1="191.262" x2="17.701" y2="161.925"/>
   <line stroke-width="0.3" stroke-linejoin="round" stroke-dasharray="6 2 1 2" x1="51.649" y1="192.025" x2="16.839" y2="161.163"/>
  </g>
  <path stroke="none" fill="#000000" d="M52.698 133.859C53.112 133.859 53.448 133.522 53.448 133.109 53.448 132.694 53.112 132.359 52.698 132.359 52.283 132.359 51.948 132.694 51.948 133.109 51.948 133.522 52.283 133.859 52.698 133.859z"/>
  <line stroke-width="0.3" stroke-linejoin="round" x1="52.698" y1="133.109" x2="68.5" y2="133.109"/>
  <path stroke="none" fill="#000000" d="M121.228 155.594C121.643 155.594 121.978 155.258 121.978 154.844 121.978 154.431 121.643 154.094 121.228 154.094 120.814 154.094 120.478 154.431 120.478 154.844 120.478 155.258 120.814 155.594 121.228 155.594z"/>
  <line stroke-width="0.3" stroke-linejoin="round" x1="121.228" y1="154.844" x2="121.228" y2="161.292"/>
  <g>
   <line stroke-width="0.2" stroke-linejoin="round" x1="126.046" y1="151.466" x2="125.237" y2="151.36"/>
   <line stroke-width="0.2" stroke-linejoin="round" x1="126.581" y1="151.33" x2="126.046" y2="151.466"/>
   <polyline stroke-width="0.2" stroke-linejoin="round" points="123.959 154.175 124.216 154.31 124.656 154.158 125.164 153.762 125.6 153.227 125.849 152.695 125.846 152.312"/>
   <polyline stroke-width="0.2" stroke-linejoin="round" points="124.466 152.377 123.739 153.27 123.322 154.155"/>
   <line stroke-width="0.2" stroke-linejoin="round" x1="124.466" y1="152.377" x2="123.423" y2="153.152"/>
   <line stroke-width="0.2" stroke-linejoin="round" x1="125.237" y1="151.36" x2="124.046" y2="150.305"/>
   <line stroke-width="0.2" stroke-linejoin="round" x1="124.466" y1="152.377" x2="125.237" y2="151.36"/>
   <polyline stroke-width="0.2" stroke-linejoin="round" points="126.046 151.466 125.311 151.717 124.466 152.377"/>
   <polyline stroke-width="0.2" stroke-linejoin="round" points="126.481 152.331 126.474 151.691 126.046 151.466"/>
   <polyline stroke-width="0.2" stroke-linejoin="round" points="124.046 150.305 123.629 150.86 123.236 151.288 122.802 151.676 122.231 152.098"/>
   <polyline stroke-width="0.2" stroke-linejoin="round" points="125.39 150.274 125.1 150.349 124.816 150.376 124.489 150.364 124.046 150.305"/>
   <polyline stroke-width="0.2" stroke-linejoin="round" points="123.322 154.155 123.331 154.795 123.759 155.02 124.493 154.769"/>
   <polyline stroke-width="0.2" stroke-linejoin="round" points="122.231 152.098 122.093 153.064 121.965 153.447 121.76 153.859"/>
   <line stroke-width="0.2" stroke-linejoin="round" x1="123.423" y1="153.152" x2="122.231" y2="152.098"/>
   <line stroke-width="0.2" stroke-linejoin="round" x1="123.322" y1="154.155" x2="123.423" y2="153.152"/>
   <line stroke-width="0.2" stroke-linejoin="round" x1="122.95" y1="154.914" x2="123.322" y2="154.155"/>
   <polyline stroke-width="0.2" stroke-linejoin="round" points="121.417 154.367 121.176 154.122 121.09 153.721 121.165 153.212 121.387 152.618 121.756 151.955 122.24 151.289 122.789 150.688 123.376 150.169 123.987 149.752 124.557 149.486 125.031 149.395 125.397 149.467"/>
   <polyline stroke-width="0.2" stroke-linejoin="round" points="125.846 152.312 125.587 152.176 125.147 152.328 124.641 152.723 124.203 153.258 123.954 153.789 123.959 154.175"/>
   <polyline stroke-width="0.2" stroke-linejoin="round" points="125.397 149.467 125.64 149.713 125.724 150.115 125.665 150.518"/>
   <polyline stroke-width="0.2" stroke-linejoin="round" points="121.417 154.367 121.081 154.069 120.84 153.824 120.756 153.424 120.829 152.914 121.051 152.32 121.42 151.658 121.906 150.992 122.453 150.391 123.04 149.871 123.652 149.454 124.221 149.189 124.694 149.097 125.061 149.169 125.397 149.467"/>
   <polyline stroke-width="0.2" stroke-linejoin="round" points="122.293 154.331 122.257 154.348 121.784 154.441 121.417 154.367"/>
   <line stroke-width="0.2" stroke-linejoin="round" x1="126.581" y1="151.33" x2="125.39" y2="150.274"/>
   <line stroke-width="0.2" stroke-linejoin="round" x1="126.481" y1="152.331" x2="126.581" y2="151.33"/>
   <polyline stroke-width="0.2" stroke-linejoin="round" points="124.493 154.769 125.337 154.109 126.066 153.217 126.481 152.331"/>
   <polyline stroke-width="0.2" stroke-linejoin="round" points="123.759 155.02 124.295 154.883 124.493 154.769"/>
   <line stroke-width="0.2" stroke-linejoin="round" x1="122.95" y1="154.914" x2="123.759" y2="155.02"/>
   <line stroke-width="0.2" stroke-linejoin="round" x1="121.76" y1="153.859" x2="122.95" y2="154.914"/>
  </g>
  <path stroke="none" fill="#000000" d="M122.951 92.197C123.365 92.197 123.701 91.861 123.701 91.447 123.701 91.034 123.365 90.697 122.951 90.697 122.537 90.697 122.201 91.034 122.201 91.447 122.201 91.861 122.537 92.197 122.951 92.197z"/>
  <line stroke-width="0.3" stroke-linejoin="round" x1="122.951" y1="91.447" x2="138.753" y2="91.447"/>
  <g>
   <polyline stroke-width="0.2" stroke-linejoin="round" points="97.507 115.37 97.456 115.331 97.036 114.909 96.855 114.582 96.736 114.203 95.981 110.278 95.98 110.234"/>
   <polyline stroke-width="0.2" stroke-linejoin="round" points="96.034 109.971 96.123 109.939 96.611 109.938"/>
   <polyline stroke-width="0.2" stroke-linejoin="round" points="96.438 109.237 96.271 109.156 96.262 109.153 96.018 109.069 95.855 108.963 95.756 108.813 95.665 108.625 94.911 104.698 94.894 104.275 94.891 104.203"/>
   <polyline stroke-width="0.2" stroke-linejoin="round" points="96.736 109.772 96.611 109.445 96.394 109.186"/>
   <polyline stroke-width="0.2" stroke-linejoin="round" points="96.625 110.084 96.724 109.93 96.725 109.745"/>
   <line stroke-width="0.2" stroke-linejoin="round" x1="97.914" y1="115.585" x2="97.507" y2="115.37"/>
   <line stroke-width="0.2" stroke-linejoin="round" x1="95.98" y1="110.234" x2="95.983" y2="110.248"/>
   <polyline stroke-width="0.2" stroke-linejoin="round" points="95.986 110.206 95.98 110.234 95.998 110.07 96.031 110"/>
   <line stroke-width="0.2" stroke-linejoin="round" x1="118.248" y1="100.715" x2="118.262" y2="100.709"/>
   <polyline stroke-width="0.2" stroke-linejoin="round" points="118.257 100.638 118.239 100.611 118.209 100.614 116.058 101.73 116.027 101.76 116.018 101.774 116.004 101.808 116.004 101.837 116.015 101.856 116.019 101.861"/>
   <polyline stroke-width="0.2" stroke-linejoin="round" points="118.025 106.375 118.036 106.399 118.061 106.418 118.097 106.43 118.108 106.432 118.152 106.424 120.332 105.293 120.341 105.28 120.337 105.262"/>
   <line stroke-width="0.2" stroke-linejoin="round" x1="120.257" y1="105.191" x2="118.045" y2="106.34"/>
   <polyline stroke-width="0.2" stroke-linejoin="round" points="118.269 100.805 118.242 100.784 118.228 100.762"/>
   <polyline stroke-width="0.2" stroke-linejoin="round" points="118.533 113.814 118.492 113.855 118.483 113.918 118.507 114.027 118.593 114.15 118.649 114.186 118.727 114.197"/>
   <polyline stroke-width="0.2" stroke-linejoin="round" points="118.331 112.765 118.29 112.805 118.281 112.867 118.305 112.977 118.391 113.099 118.447 113.137 118.525 113.147"/>
   <polyline stroke-width="0.2" stroke-linejoin="round" points="118.129 111.715 118.088 111.757 118.081 111.817 118.103 111.927 118.189 112.051 118.245 112.087 118.325 112.097"/>
   <polyline stroke-width="0.2" stroke-linejoin="round" points="117.927 110.665 117.888 110.706 117.879 110.769 117.903 110.878 117.987 111.001 118.043 111.037 118.123 111.048"/>
   <polyline stroke-width="0.2" stroke-linejoin="round" points="117.727 109.615 117.686 109.658 117.677 109.718 117.7 109.828 117.787 109.95 117.843 109.987 117.921 109.998"/>
   <polyline stroke-width="0.2" stroke-linejoin="round" points="117.525 108.566 117.484 108.608 117.475 108.67 117.5 108.778 117.584 108.902 117.641 108.938 117.715 108.947"/>
   <polyline stroke-width="0.2" stroke-linejoin="round" points="117.608 109.591 117.518 109.682 117.507 109.762 117.537 109.903 117.647 110.061 117.719 110.109 117.822 110.123 117.912 110.031"/>
   <polyline stroke-width="0.2" stroke-linejoin="round" points="117.808 110.641 117.718 110.731 117.707 110.811 117.739 110.951 117.849 111.111 117.921 111.159 118.024 111.171 118.112 111.081"/>
   <polyline stroke-width="0.2" stroke-linejoin="round" points="118.01 111.691 117.921 111.781 117.909 111.861 117.939 112.001 118.051 112.161 118.123 112.209 118.224 112.221 118.314 112.131"/>
   <polyline stroke-width="0.2" stroke-linejoin="round" points="118.212 112.739 118.121 112.831 118.111 112.911 118.141 113.052 118.251 113.21 118.325 113.257 118.427 113.271 118.516 113.18"/>
   <polyline stroke-width="0.2" stroke-linejoin="round" points="117.406 108.542 117.316 108.632 117.305 108.712 117.335 108.852 117.447 109.012 117.519 109.06 117.62 109.072 117.709 108.981"/>
   <polyline stroke-width="0.2" stroke-linejoin="round" points="118.414 113.79 118.323 113.881 118.313 113.96 118.343 114.1 118.453 114.26 118.525 114.308 118.628 114.32 118.718 114.23"/>
   <line stroke-width="0.2" stroke-linejoin="round" x1="117.024" y1="108.222" x2="118.23" y2="114.504"/>
   <line stroke-width="0.2" stroke-linejoin="round" x1="118.063" y1="114.649" x2="116.819" y2="108.165"/>
   <line stroke-width="0.2" stroke-linejoin="round" x1="118.23" y1="114.504" x2="118.963" y2="114.632"/>
   <line stroke-width="0.2" stroke-linejoin="round" x1="118.063" y1="114.649" x2="118.23" y2="114.504"/>
   <line stroke-width="0.2" stroke-linejoin="round" x1="118.998" y1="114.811" x2="118.063" y2="114.649"/>
   <line stroke-width="0.2" stroke-linejoin="round" x1="116.819" y1="108.165" x2="117.753" y2="108.326"/>
   <line stroke-width="0.2" stroke-linejoin="round" x1="117.024" y1="108.222" x2="116.819" y2="108.165"/>
   <line stroke-width="0.2" stroke-linejoin="round" x1="117.757" y1="108.349" x2="117.024" y2="108.222"/>
   <polyline stroke-width="0.2" stroke-linejoin="round" points="113.724 118.817 113.269 118.861 97.655 116.153 97.153 115.944 96.679 115.516 96.305 114.933 96.088 114.284 94.25 104.704 94.222 104.088 94.391 103.599 94.727 103.311"/>
   <line stroke-width="0.2" stroke-linejoin="round" x1="124.138" y1="112.891" x2="124.296" y2="113.718"/>
   <polyline stroke-width="0.2" stroke-linejoin="round" points="122.808 113.835 122.65 113.009 122.337 112.954"/>
   <line stroke-width="0.2" stroke-linejoin="round" x1="124.138" y1="112.891" x2="122.65" y2="113.009"/>
   <line stroke-width="0.2" stroke-linejoin="round" x1="122.927" y1="112.682" x2="124.138" y2="112.891"/>
   <polyline stroke-width="0.2" stroke-linejoin="round" points="127.637 108.311 128.004 108.43 128.295 108.74 128.465 109.197 129.518 114.682 129.538 115.215 129.409 115.745 129.149 116.189 128.796 116.481 127.775 117.012 127.385 117.105 127.016 116.987"/>
   <polyline stroke-width="0.2" stroke-linejoin="round" points="117.796 116.496 117.739 117.213 117.686 117.665"/>
   <polyline stroke-width="0.4" stroke-linejoin="round" points="120.718 108.012 120.26 108.763 120.206 108.832 120.048 108.915 120.013 108.947 119.993 108.996"/>
   <line stroke-width="0.4" stroke-linejoin="round" x1="120.628" y1="107.391" x2="120.718" y2="108.012"/>
   <line stroke-width="0.4" stroke-linejoin="round" x1="120.628" y1="107.349" x2="120.628" y2="107.391"/>
   <polyline stroke-width="0.2" stroke-linejoin="round" points="118.718 114.23 118.728 114.15 118.697 114.01 118.587 113.85 118.515 113.802 118.414 113.79"/>
   <polyline stroke-width="0.2" stroke-linejoin="round" points="118.516 113.18 118.527 113.1 118.496 112.959 118.385 112.801 118.313 112.753 118.212 112.739"/>
   <polyline stroke-width="0.2" stroke-linejoin="round" points="118.314 112.131 118.325 112.051 118.295 111.911 118.185 111.751 118.111 111.703 118.01 111.691"/>
   <polyline stroke-width="0.2" stroke-linejoin="round" points="118.112 111.081 118.123 111.001 118.093 110.861 117.983 110.701 117.911 110.653 117.808 110.641"/>
   <polyline stroke-width="0.2" stroke-linejoin="round" points="117.709 108.981 117.721 108.902 117.691 108.762 117.579 108.602 117.507 108.555 117.406 108.542"/>
   <polyline stroke-width="0.2" stroke-linejoin="round" points="117.912 110.031 117.923 109.951 117.891 109.811 117.781 109.652 117.709 109.605 117.608 109.591"/>
   <line stroke-width="0.2" stroke-linejoin="round" x1="118.998" y1="114.811" x2="117.753" y2="108.326"/>
   <line stroke-width="0.2" stroke-linejoin="round" x1="118.736" y1="100.447" x2="119.207" y2="100.203"/>
   <line stroke-width="0.2" stroke-linejoin="round" x1="118.42" y1="100.495" x2="118.766" y2="100.442"/>
   <line stroke-width="0.2" stroke-linejoin="round" x1="118.087" y1="100.344" x2="118.424" y2="100.496"/>
   <line stroke-width="0.2" stroke-linejoin="round" x1="118.228" y1="100.762" x2="118.218" y2="100.745"/>
   <polyline stroke-width="0.2" stroke-linejoin="round" points="118.246 100.716 118.227 100.739 118.227 100.74 118.228 100.762"/>
   <polyline stroke-width="0.2" stroke-linejoin="round" points="118.262 100.709 116.049 101.858 116.036 101.864 118.248 100.715"/>
   <polyline stroke-width="0.2" stroke-linejoin="round" points="118.257 100.638 118.263 100.688 118.262 100.709"/>
   <polyline stroke-width="0.4" stroke-linejoin="round" points="105.021 85.7 110.468 90.528 112.665 92.682 114.739 95.135 116.626 97.828 118.257 100.638"/>
   <line stroke-width="0.4" stroke-linejoin="round" x1="104.117" y1="85.242" x2="105.021" y2="85.7"/>
   <polyline stroke-width="0.4" stroke-linejoin="round" points="96.129 101.075 100.7 87.075 101.022 86.56 101.046 86.534 103.197 85.418 103.71 85.189 103.745 85.185 104.117 85.242"/>
   <polyline stroke-width="0.4" stroke-linejoin="round" points="116.79 118.739 116.772 118.742 114.921 119.703 114.558 119.757 113.795 119.828 98.18 117.121 97.334 116.771 97.143 116.625 96.432 115.98 95.87 115.105 95.546 114.132 93.707 104.552 93.668 103.629 93.661 103.359 93.944 102.537 94.179 102.287 94.768 101.783 96.623 100.819 96.977 100.709"/>
   <polyline stroke-width="0.2" stroke-linejoin="round" points="99.48 93.201 99.45 93.2 99.489 93.2"/>
   <line stroke-width="0.2" stroke-linejoin="round" x1="99.534" y1="93.245" x2="99.498" y2="93.209"/>
   <polyline stroke-width="0.2" stroke-linejoin="round" points="100.224 96.76 99.564 93.322 99.528 93.239"/>
   <line stroke-width="0.2" stroke-linejoin="round" x1="100.224" y1="96.792" x2="100.224" y2="96.754"/>
   <line stroke-width="0.2" stroke-linejoin="round" x1="103.106" y1="93.256" x2="100.06" y2="92.727"/>
   <polyline stroke-width="0.2" stroke-linejoin="round" points="103.971 97.411 103.197 93.378 103.174 93.313 103.129 93.262"/>
   <line stroke-width="0.2" stroke-linejoin="round" x1="103.969" y1="97.441" x2="103.971" y2="97.403"/>
   <polyline stroke-width="0.2" stroke-linejoin="round" points="100.069 92.728 100.061 92.73 100.066 92.728"/>
   <polyline stroke-width="0.2" stroke-linejoin="round" points="104.787 89.388 104.763 89.388 104.832 89.409"/>
   <line stroke-width="0.2" stroke-linejoin="round" x1="107.013" y1="91.405" x2="107.009" y2="91.382"/>
   <line stroke-width="0.2" stroke-linejoin="round" x1="106.766" y1="93.094" x2="106.765" y2="93.132"/>
   <polyline stroke-width="0.2" stroke-linejoin="round" points="104.819 89.397 106.26 90.674 106.322 90.787 106.766 93.102"/>
   <line stroke-width="0.2" stroke-linejoin="round" x1="103.807" y1="93.376" x2="106.853" y2="93.906"/>
   <polyline stroke-width="0.2" stroke-linejoin="round" points="103.813 93.378 103.808 93.379 103.816 93.379"/>
   <line stroke-width="0.2" stroke-linejoin="round" x1="107.513" y1="94.01" x2="107.507" y2="93.978"/>
   <line stroke-width="0.2" stroke-linejoin="round" x1="107.718" y1="98.054" x2="107.716" y2="98.091"/>
   <polyline stroke-width="0.2" stroke-linejoin="round" points="106.876 93.912 106.921 93.962 106.944 94.028 107.718 98.061"/>
   <line stroke-width="0.2" stroke-linejoin="round" x1="107.088" y1="91.409" x2="107.052" y2="91.388"/>
   <polyline stroke-width="0.2" stroke-linejoin="round" points="109.365 93.563 109.308 93.447 108.031 92.245 107.075 91.397"/>
   <line stroke-width="0.2" stroke-linejoin="round" x1="109.385" y1="93.572" x2="109.364" y2="93.587"/>
   <line stroke-width="0.2" stroke-linejoin="round" x1="107.019" y1="91.388" x2="107.067" y2="91.385"/>
   <polyline stroke-width="0.2" stroke-linejoin="round" points="111.465 98.709 110.762 95.039 110.713 94.942 110.34 94.525"/>
   <line stroke-width="0.2" stroke-linejoin="round" x1="111.463" y1="98.742" x2="111.465" y2="98.703"/>
   <line stroke-width="0.2" stroke-linejoin="round" x1="111.501" y1="95.915" x2="111.513" y2="95.983"/>
   <polyline stroke-width="0.2" stroke-linejoin="round" points="107.563 94.028 107.555 94.03 107.56 94.028"/>
   <polyline stroke-width="0.2" stroke-linejoin="round" points="110.343 94.531 110.299 94.503 107.554 94.027"/>
   <polyline stroke-width="0.2" stroke-linejoin="round" points="113.859 99.141 113.826 99.052 111.593 95.981"/>
   <line stroke-width="0.2" stroke-linejoin="round" x1="113.832" y1="99.188" x2="113.852" y2="99.162"/>
   <line stroke-width="0.2" stroke-linejoin="round" x1="111.522" y1="95.95" x2="111.558" y2="95.948"/>
   <polyline stroke-width="0.2" stroke-linejoin="round" points="103.182 88.243 103.846 89.096 104.2 90.129"/>
   <polyline stroke-width="0.2" stroke-linejoin="round" points="101.927 87.906 102.409 87.816 103.186 88.25"/>
   <polyline stroke-width="0.2" stroke-linejoin="round" points="102.722 91.534 103.004 91.691 103.71 91.611 104.149 91.033 104.2 90.126"/>
   <line stroke-width="0.2" stroke-linejoin="round" x1="100.311" y1="97.564" x2="98.171" y2="97.194"/>
   <polyline stroke-width="0.2" stroke-linejoin="round" points="101.091 101.274 100.403 97.688 100.379 97.623 100.334 97.57"/>
   <line stroke-width="0.2" stroke-linejoin="round" x1="101.087" y1="101.302" x2="101.09" y2="101.266"/>
   <polyline stroke-width="0.2" stroke-linejoin="round" points="119.373 113.899 119.352 114.486 119.138 114.938 117.796 116.496"/>
   <polyline stroke-width="0.2" stroke-linejoin="round" points="116.984 105.236 117.091 105.34 117.522 106.445 118.682 110.191 119.373 113.905"/>
   <line stroke-width="0.2" stroke-linejoin="round" x1="115.198" y1="104.939" x2="117.003" y2="105.253"/>
   <polyline stroke-width="0.2" stroke-linejoin="round" points="115.224 104.944 115.222 104.944 115.224 104.944"/>
   <line stroke-width="0.2" stroke-linejoin="round" x1="114.397" y1="100.007" x2="112.253" y2="99.635"/>
   <polyline stroke-width="0.2" stroke-linejoin="round" points="116.721 104.45 116.704 104.371 115.653 102.18 114.46 100.061 114.368 99.987"/>
   <line stroke-width="0.2" stroke-linejoin="round" x1="116.703" y1="104.471" x2="116.719" y2="104.427"/>
   <polyline stroke-width="0.2" stroke-linejoin="round" points="112.262 99.637 112.254 99.638 112.259 99.637"/>
   <line stroke-width="0.2" stroke-linejoin="round" x1="112.206" y1="99.587" x2="112.212" y2="99.618"/>
   <polyline stroke-width="0.2" stroke-linejoin="round" points="108.515 98.987 108.507 98.989 108.512 98.986"/>
   <line stroke-width="0.2" stroke-linejoin="round" x1="111.552" y1="99.513" x2="108.506" y2="98.986"/>
   <polyline stroke-width="0.2" stroke-linejoin="round" points="112.332 103.222 111.644 99.637 111.62 99.572 111.575 99.519"/>
   <line stroke-width="0.2" stroke-linejoin="round" x1="112.328" y1="103.251" x2="112.331" y2="103.213"/>
   <line stroke-width="0.2" stroke-linejoin="round" x1="108.459" y1="98.938" x2="108.465" y2="98.969"/>
   <polyline stroke-width="0.2" stroke-linejoin="round" points="104.768 98.337 104.76 98.338 104.765 98.337"/>
   <line stroke-width="0.2" stroke-linejoin="round" x1="107.805" y1="98.864" x2="104.759" y2="98.335"/>
   <polyline stroke-width="0.2" stroke-linejoin="round" points="108.585 102.573 107.897 98.986 107.873 98.921 107.828 98.87"/>
   <line stroke-width="0.2" stroke-linejoin="round" x1="108.581" y1="102.6" x2="108.584" y2="102.564"/>
   <line stroke-width="0.2" stroke-linejoin="round" x1="104.058" y1="98.215" x2="101.012" y2="97.686"/>
   <polyline stroke-width="0.2" stroke-linejoin="round" points="104.838 101.924 104.15 98.337 104.126 98.272 104.081 98.221"/>
   <line stroke-width="0.2" stroke-linejoin="round" x1="104.834" y1="101.95" x2="104.837" y2="101.915"/>
   <line stroke-width="0.2" stroke-linejoin="round" x1="104.712" y1="98.287" x2="104.718" y2="98.319"/>
   <polyline stroke-width="0.2" stroke-linejoin="round" points="101.021 97.688 101.013 97.688 101.018 97.688"/>
   <polyline stroke-width="0.2" stroke-linejoin="round" points="113.897 118.671 113.579 118.7 97.963 115.992 97.462 115.784 96.987 115.355 96.786 115.081 96.614 114.772 96.397 114.123 94.558 104.543 94.533 103.927 94.7 103.438 94.864 103.299"/>
   <polyline stroke-width="0.2" stroke-linejoin="round" points="94.727 103.311 95.18 103.269 110.796 105.975 111.299 106.185 111.772 106.614 112.147 107.197 112.362 107.846 114.201 117.424 114.227 118.04 114.06 118.53 113.724 118.817"/>
   <polyline stroke-width="0.2" stroke-linejoin="round" points="123.611 98.623 123.501 98.406 123.48 98.394 123.465 98.385 123.447 98.385 122.754 98.59"/>
   <polyline stroke-width="0.2" stroke-linejoin="round" points="123.676 98.656 123.647 98.659 123.614 98.638 123.626 98.647"/>
   <polyline stroke-width="0.2" stroke-linejoin="round" points="124.415 102.418 125.201 101.93 125.216 101.92 125.224 101.909 125.227 101.894 125.227 101.884 125.225 101.873 123.79 98.647 123.783 98.638 123.775 98.634 123.76 98.625 123.75 98.625 123.728 98.629 122.926 99.043"/>
   <polyline stroke-width="0.2" stroke-linejoin="round" points="125.109 101.987 125.108 101.996 125.111 101.986"/>
   <polyline stroke-width="0.2" stroke-linejoin="round" points="124.572 102.712 125.18 102.237 125.186 102.233 125.191 102.213 125.191 102.209 125.189 102.191 125.117 102.006"/>
   <line stroke-width="0.2" stroke-linejoin="round" x1="120.765" y1="104.89" x2="121.2" y2="104.662"/>
   <polyline stroke-width="0.2" stroke-linejoin="round" points="120.402 105.457 120.481 105.168 120.774 104.879"/>
   <polyline stroke-width="0.2" stroke-linejoin="round" points="120.337 105.262 120.32 105.242 120.257 105.191"/>
   <line stroke-width="0.4" stroke-linejoin="round" x1="120.951" y1="107.144" x2="120.337" y2="105.262"/>
   <line stroke-width="0.2" stroke-linejoin="round" x1="119.376" y1="110.402" x2="120.283" y2="110.56"/>
   <polyline stroke-width="0.2" stroke-linejoin="round" points="119.399 110.406 119.397 110.406 119.382 110.409 119.4 110.406"/>
   <line stroke-width="0.2" stroke-linejoin="round" x1="120.034" y1="114.759" x2="121.126" y2="114.947"/>
   <polyline stroke-width="0.2" stroke-linejoin="round" points="120.132 115.319 120.197 115.322 121.231 115.503"/>
   <polyline stroke-width="0.2" stroke-linejoin="round" points="115.588 119.358 116.311 119.197 116.867 118.908 118.46 118.081 119.061 117.718 119.084 117.692 121.006 115.463"/>
   <line stroke-width="0.2" stroke-linejoin="round" x1="112.665" y1="119.783" x2="113.043" y2="119.698"/>
   <line stroke-width="0.2" stroke-linejoin="round" x1="111.911" y1="120.174" x2="112.665" y2="119.783"/>
   <polyline stroke-width="0.2" stroke-linejoin="round" points="101.337 117.668 101.71 117.828 109.894 120.415 110.606 120.462 110.641 120.456 111.911 120.174"/>
   <line stroke-width="0.2" stroke-linejoin="round" x1="122.337" y1="112.954" x2="122.927" y2="112.682"/>
   <polyline stroke-width="0.2" stroke-linejoin="round" points="122.808 113.835 122.496 113.781 122.337 112.954"/>
   <line stroke-width="0.2" stroke-linejoin="round" x1="124.296" y1="113.718" x2="122.808" y2="113.835"/>
   <polygon stroke-width="0.2" stroke-linejoin="round" points="119.993 108.996 120.01 108.954 119.993 108.996 119.993 108.996"/>
   <polyline stroke-width="0.4" stroke-linejoin="round" points="121.444 116.397 121.411 116.376 121.391 116.331 119.993 109.051 119.993 109.043 119.993 108.996"/>
   <line stroke-width="0.2" stroke-linejoin="round" x1="126.501" y1="117.281" x2="121.459" y2="116.406"/>
   <polyline stroke-width="0.4" stroke-linejoin="round" points="127.588 118.025 122.546 117.15 122.531 117.143 122.504 117.126 122.489 117.09 122.388 116.567"/>
   <polyline stroke-width="0.4" stroke-linejoin="round" points="127.876 117.221 127.873 117.239 127.974 117.771 127.977 117.807 127.965 117.835 127.944 117.858 127.915 117.876 127.588 118.025"/>
   <polyline stroke-width="0.4" stroke-linejoin="round" points="121.956 107.299 122.058 107.246 122.528 107.132 122.545 107.129 127.587 108.004 128.034 108.147 128.068 108.167 128.418 108.54 128.622 109.09 129.674 114.573 129.699 115.215 129.699 115.219 129.546 115.84 129.544 115.852 129.23 116.385 128.807 116.734 127.876 117.221"/>
   <polyline stroke-width="0.2" stroke-linejoin="round" points="126.213 108.593 126.215 108.594 126.213 108.593"/>
   <polyline stroke-width="0.2" stroke-linejoin="round" points="126.219 108.625 126.224 108.635 126.219 108.626"/>
   <polyline stroke-width="0.2" stroke-linejoin="round" points="126.087 108.033 126.114 108.078 126.221 108.631"/>
   <polyline stroke-width="0.2" stroke-linejoin="round" points="120.628 107.349 120.628 107.349 120.644 107.311 120.671 107.284 120.948 107.141 120.963 107.138 120.996 107.132 126.04 108.007 126.058 108.015"/>
   <line stroke-width="0.4" stroke-linejoin="round" x1="120.641" y1="107.319" x2="120.628" y2="107.349"/>
   <polyline stroke-width="0.4" stroke-linejoin="round" points="127.637 108.311 127.245 108.406 126.225 108.936 125.873 109.227 125.611 109.671 125.483 110.2 125.504 110.736 126.557 116.218 126.725 116.677 127.016 116.987"/>
   <line stroke-width="0.2" stroke-linejoin="round" x1="124.376" y1="99.965" x2="125.433" y2="99.417"/>
   <line stroke-width="0.2" stroke-linejoin="round" x1="124.378" y1="99.969" x2="125.459" y2="99.408"/>
   <line stroke-width="0.2" stroke-linejoin="round" x1="125.096" y1="101.585" x2="126.126" y2="101.051"/>
   <line stroke-width="0.2" stroke-linejoin="round" x1="125.099" y1="101.591" x2="126.153" y2="101.045"/>
   <line stroke-width="0.2" stroke-linejoin="round" x1="124.683" y1="97.796" x2="123.504" y2="98.409"/>
   <line stroke-width="0.2" stroke-linejoin="round" x1="124.658" y1="97.808" x2="123.503" y2="98.408"/>
   <polyline stroke-width="0.2" stroke-linejoin="round" points="94.558 94.271 94.894 94.581 94.813 95.268 94.335 96.147 93.588 96.983 92.774 97.554 92.405 97.688 92.108 97.703"/>
   <polyline stroke-width="0.2" stroke-linejoin="round" points="88.411 117.817 88.748 118.128 88.667 118.814 88.188 119.694 87.442 120.531 86.628 121.1 85.962 121.251"/>
   <polyline stroke-width="0.2" stroke-linejoin="round" points="112.031 73.052 112.368 73.362 112.287 74.049 111.81 74.93 111.063 75.766 110.248 76.335 109.584 76.486"/>
   <polyline stroke-width="0.2" stroke-linejoin="round" points="119.007 100.043 118.371 99.795 118.156 99.814"/>
   <polyline stroke-width="0.2" stroke-linejoin="round" points="121.275 104.84 121.15 104.543 120.051 102.588 119.349 100.498 119.209 100.206 118.983 100.025"/>
   <polyline stroke-width="0.2" stroke-linejoin="round" points="120.972 105.631 121.25 105.072 121.274 104.835 121.275 104.823"/>
   <line stroke-width="0.2" stroke-linejoin="round" x1="120.896" y1="105.703" x2="120.974" y2="105.626"/>
   <polyline stroke-width="0.2" stroke-linejoin="round" points="124.935 103.724 125.048 103.774 125.631 104.033 126.414 104.37 126.665 104.475"/>
   <polyline stroke-width="0.4" stroke-linejoin="round" points="122.314 97.849 122.448 98.138 122.739 98.549 122.918 99.022 123.54 100.85 124.498 102.564 124.731 103.019 124.837 103.495 124.942 103.745"/>
   <polyline stroke-width="0.2" stroke-linejoin="round" points="122.668 95.612 122.686 95.549 122.617 95.853 122.438 96.87 122.341 97.703 122.319 97.856"/>
   <polyline stroke-width="0.2" stroke-linejoin="round" points="126.153 101.045 126.314 101.456 125.141 102.066"/>
   <line stroke-width="0.2" stroke-linejoin="round" x1="126.126" y1="101.051" x2="126.153" y2="101.045"/>
   <line stroke-width="0.2" stroke-linejoin="round" x1="125.459" y1="99.408" x2="125.433" y2="99.417"/>
   <polyline stroke-width="0.2" stroke-linejoin="round" points="124.558 100.376 125.641 99.814 125.459 99.408"/>
   <line stroke-width="0.2" stroke-linejoin="round" x1="124.683" y1="97.796" x2="124.658" y2="97.808"/>
   <polyline stroke-width="0.2" stroke-linejoin="round" points="123.831 98.742 124.884 98.195 124.683 97.796"/>
   <polyline stroke-width="0.2" stroke-linejoin="round" points="92.108 97.703 91.772 97.393 91.853 96.706 92.331 95.826 93.078 94.989 93.893 94.42 94.558 94.271"/>
   <line stroke-width="0.2" stroke-linejoin="round" x1="92.483" y1="113.034" x2="92.221" y2="113.147"/>
   <polyline stroke-width="0.2" stroke-linejoin="round" points="98.149 117.108 97.957 117.206 97.665 117.308 97.573 117.319 97.365 117.281 97.272 117.234 92.68 113.162 92.519 113.046 92.397 113.007"/>
   <polyline stroke-width="0.2" stroke-linejoin="round" points="96.858 118.153 96.611 118.04 90.796 115.775 90.587 115.728"/>
   <line stroke-width="0.2" stroke-linejoin="round" x1="90.701" y1="115.754" x2="90.602" y2="115.778"/>
   <line stroke-width="0.2" stroke-linejoin="round" x1="90.719" y1="115.745" x2="90.728" y2="115.743"/>
   <polyline stroke-width="0.2" stroke-linejoin="round" points="85.962 121.251 85.625 120.941 85.706 120.254 86.185 119.373 86.93 118.537 87.745 117.966 88.411 117.817"/>
   <polyline stroke-width="0.2" stroke-linejoin="round" points="109.584 76.486 109.245 76.176 109.328 75.489 109.805 74.608 110.552 73.772 111.367 73.203 112.031 73.052"/>
   <polyline stroke-width="0.4" stroke-linejoin="round" points="110.408 69.147 110.266 69.016 110.141 69.007 109.367 69.031 108.368 69.489 107.29 70.313 106.811 70.772 106.442 71.103 105.733 72.042 105.73 72.049"/>
   <polyline stroke-width="0.2" stroke-linejoin="round" points="98.376 79.81 98.209 79.662 98.171 79.644 97.787 79.587 97.584 79.597 97.329 79.689 97.278 79.718 97.013 79.879 96.748 80.09 96.495 80.343 96.263 80.635 95.951 81.207 95.929 81.26 95.873 81.731 95.974 82.105 95.996 82.141 96.242 82.367"/>
   <line stroke-width="0.2" stroke-linejoin="round" x1="93.775" y1="118.287" x2="92.852" y2="117.356"/>
   <line stroke-width="0.2" stroke-linejoin="round" x1="93.551" y1="118.896" x2="93.528" y2="118.918"/>
   <polyline stroke-width="0.2" stroke-linejoin="round" points="94.15 117.456 94.132 117.584 93.549 118.899"/>
   <polyline stroke-width="0.2" stroke-linejoin="round" points="93.853 116.965 93.965 117.078 94.096 117.266 94.156 117.48"/>
   <polyline stroke-width="0.2" stroke-linejoin="round" points="92.983 117.643 92.89 117.5 92.847 117.337 92.867 117.197 93.099 116.673"/>
   <polyline stroke-width="0.2" stroke-linejoin="round" points="86.42 111.091 86.364 110.888 86.42 110.424 86.441 110.371 86.748 109.808 87.227 109.272 87.748 108.906 87.799 108.878 87.959 108.843"/>
   <polyline stroke-width="0.4" stroke-linejoin="round" points="122.138 116.524 121.986 116.769 121.763 117.081 121.659 117.222 121.513 117.442 121.49 117.468 121.234 117.685 118.451 119.097 117.92 119.257 117.887 119.262 115.588 119.358"/>
   <polyline stroke-width="0.4" stroke-linejoin="round" points="118.549 87.283 120.424 89.141 122.421 91.51 124.237 94.108 125.826 96.861 127.176 99.739 128.269 102.718 129.072 105.715 129.567 108.646 129.568 108.692 129.55 109.125 129.395 109.45 128.818 110.12"/>
   <polyline stroke-width="0.4" stroke-linejoin="round" points="110.361 69.105 110.405 69.144 110.468 69.182 113.153 71.561 113.603 71.983 113.626 72.018 113.674 72.822 113.671 72.858 113.313 73.926 113.248 74.07 112.052 76.938 111.992 77.754 112.364 78.575 113.195 79.623 113.45 80.057 114.219 81.54 115.311 83.191 117.634 86.349 118.549 87.283"/>
   <polyline stroke-width="0.4" stroke-linejoin="round" points="94.129 124.224 94.198 124.266 94.948 124.93 94.986 124.959 95.034 124.987 95.09 124.998 95.129 124.998 95.215 124.978 95.462 124.849"/>
   <polyline stroke-width="0.4" stroke-linejoin="round" points="89.239 121.804 93.777 124.078 93.792 124.085 94.173 124.246"/>
   <line stroke-width="0.4" stroke-linejoin="round" x1="88.926" y1="121.703" x2="89.239" y2="121.804"/>
   <polyline stroke-width="0.4" stroke-linejoin="round" points="86.784 122.159 87.016 122.233 87.081 122.237 87.165 122.225 88.926 121.703"/>
   <polyline stroke-width="0.4" stroke-linejoin="round" points="86.495 110.981 84.787 113.477 82.831 115.947 82.028 117.04 81.498 118.111 81.302 119.025 81.298 119.118 81.465 119.771 81.492 119.817 84.266 122.295 84.783 122.587 84.876 122.631 85.671 122.522 85.754 122.51 86.795 122.156"/>
   <polyline stroke-width="0.2" stroke-linejoin="round" points="86.871 110.742 86.572 110.899 86.495 110.981"/>
   <polyline stroke-width="0.4" stroke-linejoin="round" points="90.509 101.128 90.382 102.313 90.1 103.623 89.676 105.016 89.097 106.507 88.373 108.069 87.507 109.683 86.73 110.98 86.691 111.037"/>
   <polyline stroke-width="0.4" stroke-linejoin="round" points="90.028 98.358 90.305 99.058 90.486 100.054 90.51 101.176"/>
   <polyline stroke-width="0.4" stroke-linejoin="round" points="89.442 91.829 89.358 91.908 88.67 92.703 88.489 92.972 88.128 93.572 87.65 94.548 87.453 95.391 87.448 95.484 87.551 96.123 87.605 96.212 90.352 98.647 90.751 98.996"/>
   <polyline stroke-width="0.4" stroke-linejoin="round" points="106.915 70.947 106.808 71.04 106.576 71.242 106.533 71.281 104.721 73.012 102.04 75.733 99.421 78.585 96.897 81.542 94.496 84.566 92.245 87.626 90.167 90.683 89.441 91.829"/>
   <polyline stroke-width="0.2" stroke-linejoin="round" points="101.858 89.378 101.852 89.426 101.906 89.579 101.963 89.953 101.947 90.046 101.975 90.153 102.04 90.251 102.165 90.316 102.447 90.552 102.509 90.644 102.54 90.665"/>
   <polyline stroke-width="0.2" stroke-linejoin="round" points="101.87 89.299 101.756 89.384 101.689 89.49"/>
   <polyline stroke-width="0.2" stroke-linejoin="round" points="101.766 88.153 102.382 88.061 103.078 88.429 103.665 89.159 103.989 90.055 103.959 90.876 103.587 91.405"/>
   <line stroke-width="0.2" stroke-linejoin="round" x1="102.384" y1="90.73" x2="102.501" y2="90.724"/>
   <polyline stroke-width="0.2" stroke-linejoin="round" points="101.475 89.512 101.427 89.572 101.42 89.665 101.477 89.802 101.566 89.995 101.534 90.176 101.558 90.409 101.736 90.539 101.903 90.599 102.018 90.775 102.072 90.864 102.147 90.921 102.225 90.932"/>
   <line stroke-width="0.2" stroke-linejoin="round" x1="101.337" y1="88.679" x2="101.341" y2="88.623"/>
   <polyline stroke-width="0.2" stroke-linejoin="round" points="101.338 88.677 101.341 88.584 101.74 88.019 101.772 87.986 101.927 87.906"/>
   <line stroke-width="0.2" stroke-linejoin="round" x1="101.34" y1="88.674" x2="101.341" y2="88.623"/>
   <polyline stroke-width="0.2" stroke-linejoin="round" points="101.689 89.49 101.558 89.504 101.475 89.512"/>
   <line stroke-width="0.2" stroke-linejoin="round" x1="101.921" y1="89.337" x2="101.689" y2="89.49"/>
   <line stroke-width="0.2" stroke-linejoin="round" x1="102.384" y1="90.73" x2="102.631" y2="90.626"/>
   <polyline stroke-width="0.2" stroke-linejoin="round" points="102.225 90.932 102.302 90.846 102.384 90.73"/>
   <polyline stroke-width="0.2" stroke-linejoin="round" points="102.501 90.724 102.626 90.661 102.626 90.659 102.632 90.634 102.584 90.426 102.518 90.221 102.527 90.052 102.498 89.826 102.495 89.822 102.325 89.689 102.182 89.615 102.045 89.453 101.888 89.305 101.87 89.299"/>
   <polyline stroke-width="0.2" stroke-linejoin="round" points="103.587 91.405 103.248 91.456 102.668 91.543 102.4 91.408 101.847 91.115 101.381 90.536 101.125 89.823 101.147 89.171 101.186 88.894 101.536 88.397 101.766 88.153"/>
   <line stroke-width="0.2" stroke-linejoin="round" x1="93.412" y1="117.308" x2="93.606" y2="116.87"/>
   <polyline stroke-width="0.4" stroke-linejoin="round" points="101.159 122.671 96.138 125.278 96.018 125.313 95.965 125.316 95.918 125.29 95.85 125.239 95.456 124.843 95.432 124.796 95.435 124.743 95.456 124.635 98.543 117.677 98.635 117.531 98.775 117.385 98.927 117.281 98.971 117.259"/>
   <line stroke-width="0.2" stroke-linejoin="round" x1="93.796" y1="118.343" x2="93.412" y2="117.308"/>
   <polyline stroke-width="0.2" stroke-linejoin="round" points="87.109 118.581 88.034 119.402 88.219 119.371"/>
   <polyline stroke-width="0.2" stroke-linejoin="round" points="86.09 120.781 86.489 120.772 87.021 120.493 87.575 120.003 88.034 119.402"/>
   <polyline stroke-width="0.2" stroke-linejoin="round" points="85.757 120.159 85.674 120.721 85.894 121.034 86.375 121.021"/>
   <polyline stroke-width="0.2" stroke-linejoin="round" points="88.566 118.182 88.256 117.896 87.653 118.031"/>
   <polyline stroke-width="0.2" stroke-linejoin="round" points="88.072 118.153 88.332 118.393 88.269 118.924 88.123 119.25"/>
   <polyline stroke-width="0.2" stroke-linejoin="round" points="93.257 95.034 94.182 95.855 94.365 95.825"/>
   <polyline stroke-width="0.2" stroke-linejoin="round" points="92.117 97.135 92.236 97.234 92.411 97.266 92.635 97.225 93.168 96.947 93.721 96.456 93.972 96.156 94.182 95.855"/>
   <polyline stroke-width="0.2" stroke-linejoin="round" points="91.905 96.611 91.819 97.173 92.04 97.487 92.522 97.472"/>
   <polyline stroke-width="0.2" stroke-linejoin="round" points="94.712 94.635 94.402 94.349 93.801 94.484"/>
   <polyline stroke-width="0.2" stroke-linejoin="round" points="94.218 94.605 94.48 94.846 94.417 95.376 94.269 95.703"/>
   <polyline stroke-width="0.2" stroke-linejoin="round" points="110.719 73.808 111.656 74.638 111.84 74.608"/>
   <polyline stroke-width="0.2" stroke-linejoin="round" points="109.712 76.016 110.109 76.009 110.641 75.73 111.195 75.237 111.656 74.638"/>
   <polyline stroke-width="0.2" stroke-linejoin="round" points="109.379 75.394 109.295 75.956 109.515 76.271 109.995 76.256"/>
   <polyline stroke-width="0.2" stroke-linejoin="round" points="112.188 73.418 111.876 73.132 111.275 73.266"/>
   <polyline stroke-width="0.2" stroke-linejoin="round" points="111.694 73.388 111.953 73.628 111.891 74.159 111.743 74.486"/>
   <line stroke-width="0.2" stroke-linejoin="round" x1="88.123" y1="119.25" x2="87.254" y2="118.48"/>
   <polyline stroke-width="0.2" stroke-linejoin="round" points="88.566 118.182 88.49 118.816 88.307 119.219 88.123 119.25"/>
   <line stroke-width="0.2" stroke-linejoin="round" x1="88.572" y1="117.971" x2="88.566" y2="118.182"/>
   <polyline stroke-width="0.2" stroke-linejoin="round" points="88.219 119.371 87.677 120.085 87.015 120.68 86.375 121.021"/>
   <polyline stroke-width="0.2" stroke-linejoin="round" points="88.072 118.153 87.558 118.269 86.927 118.709 86.35 119.355 85.981 120.036 85.909 120.518 86.09 120.781"/>
   <line stroke-width="0.2" stroke-linejoin="round" x1="94.269" y1="95.703" x2="93.402" y2="94.933"/>
   <polyline stroke-width="0.2" stroke-linejoin="round" points="94.712 94.635 94.638 95.269 94.453 95.673 94.269 95.703"/>
   <line stroke-width="0.2" stroke-linejoin="round" x1="94.719" y1="94.424" x2="94.712" y2="94.635"/>
   <polyline stroke-width="0.2" stroke-linejoin="round" points="94.365 95.825 93.825 96.539 93.161 97.132 92.522 97.472"/>
   <polyline stroke-width="0.2" stroke-linejoin="round" points="94.218 94.605 93.704 94.721 93.075 95.162 92.498 95.808 92.128 96.489 92.055 96.969 92.117 97.135"/>
   <line stroke-width="0.2" stroke-linejoin="round" x1="111.743" y1="74.486" x2="110.855" y2="73.698"/>
   <polyline stroke-width="0.2" stroke-linejoin="round" points="112.188 73.418 112.111 74.052 111.927 74.456 111.743 74.486"/>
   <line stroke-width="0.2" stroke-linejoin="round" x1="112.194" y1="73.207" x2="112.188" y2="73.418"/>
   <polyline stroke-width="0.2" stroke-linejoin="round" points="111.84 74.608 111.299 75.322 110.635 75.915 109.995 76.256"/>
   <polyline stroke-width="0.2" stroke-linejoin="round" points="111.694 73.388 111.179 73.504 110.862 73.694 110.549 73.944 109.971 74.591 109.602 75.272 109.53 75.753 109.712 76.016"/>
   <polyline stroke-width="0.4" stroke-linejoin="round" points="101.051 129.652 101.734 130.372 103.213 132.711 104.51 134.397 106.081 135.8 107.84 136.842 109.683 137.461 137.426 143.364 138.617 143.679 140.967 144.661 143.176 146.014 145.259 147.655 146.645 149.006 147.437 149.927 147.729 150.296 170.271 178.805"/>
   <polyline stroke-width="0.4" stroke-linejoin="round" points="102.798 119.557 101.784 120.084 101.621 120.212 101.492 120.403 101.427 120.605 100.352 128.901 100.388 129.219 100.579 129.365 101.102 129.706"/>
   <polyline stroke-width="0.4" stroke-linejoin="round" points="102.977 118.228 102.676 120.46 102.6 120.632"/>
   <polyline stroke-width="0.4" stroke-linejoin="round" points="118.447 121.549 117.841 120.775 117.331 119.736 117.201 119.29"/>
   <polyline stroke-width="0.4" stroke-linejoin="round" points="160.96 149.947 160.472 149.483 159.27 147.695 156.019 141.644 155 139.93 153.836 138.316 152.544 136.822 151.141 135.467 149.644 134.268 148.069 133.239 146.438 132.395 144.774 131.745 130.204 126.965 127.519 126.025 124.977 125.016 122.596 123.941 120.403 122.802 119.162 122.106 118.447 121.549"/>
   <polyline stroke-width="0.2" stroke-linejoin="round" points="187.43 190.575 187.352 190.645 187.125 190.798"/>
   <polyline stroke-width="0.4" stroke-linejoin="round" points="159.171 151.1 159.8 150.614 166.651 146.67 167.457 146.35 167.701 146.293 168.6 146.204 169.74 146.419 170.421 146.719 171.056 147.133 171.712 147.735 172.253 148.455 176.341 155.139 180.231 161.948 183.913 168.86 187.375 175.836 188.265 178.034 188.855 180.153 189.191 182.138 189.326 184.675 189.33 184.68 189.312 185.951 189.293 187.217 189.227 187.924 188.829 189.062 188.713 189.258 188.156 189.991 187.335 190.651 187.006 190.878 181.586 193.878"/>
   <polyline stroke-width="0.2" stroke-linejoin="round" points="160.099 155.429 163.897 161.627 167.556 167.977 171.022 174.405 173.965 180.219 176.697 185.965 178.897 190.878"/>
   <polyline stroke-width="0.2" stroke-linejoin="round" points="160.682 151.021 160.181 151.413 159.8 151.926 159.556 152.536 159.461 153.219 159.509 153.925 159.725 154.689 160.099 155.429"/>
   <polyline stroke-width="0.2" stroke-linejoin="round" points="178.897 190.878 179.372 191.669 179.852 192.128 180.419 192.445 181.002 192.588 181.568 192.582 182.098 192.461 182.59 192.248"/>
   <line stroke-width="0.2" stroke-linejoin="round" x1="167.533" y1="147.079" x2="160.682" y2="151.021"/>
   <line stroke-width="0.2" stroke-linejoin="round" x1="182.59" y1="192.248" x2="187.293" y2="189.54"/>
   <polyline stroke-width="0.2" stroke-linejoin="round" points="187.293 189.54 187.913 189.103 188.495 188.52 188.879 187.669 188.942 187.092"/>
   <polyline stroke-width="0.2" stroke-linejoin="round" points="188.942 187.092 188.968 184.548 188.969 184.545 188.83 182.11 188.592 180.598 188.229 179.104 187.748 177.64 187.086 176.07"/>
   <polyline stroke-width="0.2" stroke-linejoin="round" points="187.086 176.07 183.991 169.794 180.687 163.526 178.159 158.985 175.581 154.562 171.932 148.616 171.477 148.019 170.937 147.52 169.956 146.967 168.921 146.752 168.181 146.824 167.533 147.079"/>
   <polyline stroke-width="0.2" stroke-linejoin="round" points="180.183 187.8 180.05 188.209 180.135 188.387 180.657 188.989 180.838 189.094 180.985 189.075 182.192 188.479 182.612 188.405 182.945 188.518 183.598 188.891 184.084 189.014 184.447 188.907 185.701 188.185 186.058 187.814"/>
   <polyline stroke-width="0.2" stroke-linejoin="round" points="161.808 153.62 170.735 148.481 170.905 148.451"/>
   <polyline stroke-width="0.2" stroke-linejoin="round" points="171.453 149.77 171.36 149.887 170.23 150.638 169.938 150.984 169.86 151.329 169.818 152.112 169.717 152.516 169.378 152.878 166.497 154.537 166.122 154.649 165.59 154.546 164.849 154.212 164.366 154.116 164.043 154.199 162.818 154.802 162.663 154.824 162.46 154.731 161.83 154.179 161.716 154.01 161.808 153.62"/>
   <polyline stroke-width="0.2" stroke-linejoin="round" points="173.253 156.838 173.341 156.498 173.631 156.159 174.745 155.42 174.836 155.304"/>
   <polyline stroke-width="0.2" stroke-linejoin="round" points="174.407 153.987 174.151 153.992 165.216 159.137 165.114 159.262 165.093 159.439 165.228 159.704 165.841 160.265 166.039 160.36 166.195 160.341 167.377 159.754 167.8 159.674 168.151 159.762 168.959 160.118 169.343 160.213 169.832 160.104 172.737 158.431 173.008 158.183 173.183 157.677"/>
   <polyline stroke-width="0.2" stroke-linejoin="round" points="176.48 162.478 176.57 162.131 176.865 161.786 177.995 161.037 178.086 160.919"/>
   <polyline stroke-width="0.2" stroke-linejoin="round" points="177.768 159.634 177.603 159.562 177.436 159.59 168.486 164.741"/>
   <polyline stroke-width="0.2" stroke-linejoin="round" points="168.36 164.953 168.381 165.14 168.489 165.314 169.087 165.885 169.284 165.984 169.437 165.962 170.637 165.37 171.06 165.288 171.412 165.387 172.175 165.747 172.558 165.848 173.049 165.74 175.945 164.072 176.282 163.709 176.401 163.306"/>
   <polyline stroke-width="0.2" stroke-linejoin="round" points="179.667 167.836 179.962 167.485 181.105 166.725 181.199 166.61"/>
   <polyline stroke-width="0.2" stroke-linejoin="round" points="171.56 170.463 171.489 170.731 171.61 171.002 172.193 171.58 172.387 171.68 172.537 171.658 173.752 171.058 174.176 170.981 174.524 171.082 175.256 171.448 175.758 171.556 176.122 171.448 179.013 169.783 179.359 169.419"/>
   <polyline stroke-width="0.2" stroke-linejoin="round" points="180.835 165.26 180.582 165.262 171.56 170.463"/>
   <polyline stroke-width="0.2" stroke-linejoin="round" points="182.618 173.602 182.918 173.247 184.075 172.48 184.17 172.365"/>
   <polyline stroke-width="0.2" stroke-linejoin="round" points="183.913 171.05 183.756 170.973 183.591 171.001 174.605 176.171"/>
   <polyline stroke-width="0.2" stroke-linejoin="round" points="174.605 176.171 174.479 176.455 174.587 176.758 175.157 177.342 175.344 177.442 175.493 177.421 176.719 176.814 177.145 176.739 177.49 176.846 178.187 177.211 178.685 177.325 179.051 177.218 181.937 175.557 182.284 175.188"/>
   <polyline stroke-width="0.2" stroke-linejoin="round" points="186.664 176.813 186.419 176.812 177.473 181.961 177.365 182.087 177.332 182.272 177.442 182.549 177.987 183.143 178.17 183.246 178.318 183.224 179.538 182.623 179.961 182.548 180.301 182.658 180.969 183.028 181.461 183.147 181.828 183.04 184.709 181.382 185.063 181.013"/>
   <polyline stroke-width="0.2" stroke-linejoin="round" points="185.419 179.415 185.725 179.062 186.872 178.3 186.971 178.183"/>
   <polyline stroke-width="0.2" stroke-linejoin="round" points="187.682 183.625 187.441 183.622 180.183 187.8"/>
   <polyline stroke-width="0.2" stroke-linejoin="round" points="187.981 184.947 187.86 185.117 186.756 185.85 186.445 186.206"/>
   <polyline stroke-width="0.2" stroke-linejoin="round" points="170.201 150.745 169.932 151.072 169.856 151.395 169.818 152.112 169.813 152.177 169.707 152.604 169.35 152.987 168.907 153.442 165.961 155.138 165.401 155.254 164.997 155.146 164.259 154.812 163.71 154.73 163.497 154.798 162.258 155.409 162.092 155.442 161.83 155.324 161.05 154.639 160.883 154.364 160.872 154.205 160.924 154.068 161.026 153.973 170.151 148.722 170.632 148.472 170.836 148.431 170.905 148.451 171.076 148.52 171.245 148.759 171.463 149.55 171.453 149.77 171.444 149.856 171.331 149.993 170.903 150.433 169.931 151.08"/>
   <polyline stroke-width="0.2" stroke-linejoin="round" points="186.437 186.235 186.701 185.931 187.807 185.198 187.955 184.996 187.981 184.947 187.996 184.764 187.882 183.929 187.814 183.747 187.682 183.625 187.621 183.574 187.426 183.543 186.859 183.532 186.729 183.57 186.294 183.822"/>
   <line stroke-width="0.2" stroke-linejoin="round" x1="186.263" y1="183.838" x2="182.606" y2="185.943"/>
   <polyline stroke-width="0.2" stroke-linejoin="round" points="182.606 185.943 179.274 187.861 179.168 187.959 179.105 188.1 179.094 188.266 179.218 188.562 179.84 189.28"/>
   <polyline stroke-width="0.2" stroke-linejoin="round" points="179.866 189.308 180.096 189.441 180.257 189.413 180.926 189.158 182.135 188.563"/>
   <polyline stroke-width="0.2" stroke-linejoin="round" points="181.746 188.756 182.187 188.844 182.842 189.219 183.2 189.342 183.737 189.236 184.39 188.987 185.645 188.265 186.022 187.873 186.058 187.814 186.2 187.394 186.332 186.567 186.445 186.206"/>
   <polyline stroke-width="0.2" stroke-linejoin="round" points="185.222 177.098 185.723 176.808 185.856 176.77 186.406 176.737 186.606 176.77 186.664 176.813 186.8 176.935 186.875 177.12 187.002 177.954 186.971 178.183 186.943 178.247 186.824 178.388 185.675 179.145 185.405 179.465"/>
   <polyline stroke-width="0.2" stroke-linejoin="round" points="185.419 179.415 185.312 179.775 185.199 180.593 185.063 181.013 185.031 181.075 184.658 181.468 181.777 183.127 181.143 183.417 180.606 183.526 180.237 183.403 179.568 183.032 179.057 182.935 178.984 182.957"/>
   <polyline stroke-width="0.2" stroke-linejoin="round" points="179.481 182.711 178.264 183.314 177.614 183.609 177.455 183.638 177.221 183.51 176.544 182.774 176.407 182.478 176.415 182.312 176.475 182.17 176.579 182.072"/>
   <line stroke-width="0.2" stroke-linejoin="round" x1="176.641" y1="182.036" x2="180.597" y2="179.758"/>
   <line stroke-width="0.2" stroke-linejoin="round" x1="180.549" y1="179.787" x2="185.222" y2="177.098"/>
   <polyline stroke-width="0.2" stroke-linejoin="round" points="173.729 176.331 182.914 171.044 183.05 171.006 183.682 170.931 183.873 171.021 183.913 171.05 184.008 171.216 184.057 171.306 184.199 172.138 184.17 172.365 184.145 172.432 184.028 172.57 182.873 173.337 182.603 173.653"/>
   <polyline stroke-width="0.2" stroke-linejoin="round" points="182.618 173.602 182.514 173.955 182.413 174.774 182.284 175.188 182.258 175.258 181.89 175.649 179.004 177.31 178.393 177.639 177.855 177.751 177.48 177.633 176.782 177.264 176.266 177.173 176.06 177.237 174.814 177.849 174.653 177.878 174.417 177.757 173.711 177.032 173.617 176.901 173.567 176.74 173.568 176.574 173.626 176.431 173.729 176.331 173.805 176.288"/>
   <polyline stroke-width="0.2" stroke-linejoin="round" points="179.647 167.907 179.924 167.58 181.063 166.82 181.181 166.683 181.199 166.61 181.223 166.383 181.063 165.562 180.979 165.379 180.835 165.26 180.78 165.227 180.575 165.199 180.066 165.318 179.931 165.356 171.222 170.371"/>
   <polyline stroke-width="0.2" stroke-linejoin="round" points="171.222 170.371 170.765 170.633 170.662 170.729 170.605 170.871 170.604 171.032 170.661 171.195 170.757 171.324 171.206 171.769"/>
   <polyline stroke-width="0.2" stroke-linejoin="round" points="171.218 171.782 171.48 172.04 171.723 172.163 171.889 172.134 173.12 171.527 173.325 171.461 173.844 171.549 174.578 171.915 174.954 172.026 175.495 171.915 178.449 170.215 178.968 169.878 179.336 169.492 179.359 169.419 179.481 169.008 179.569 168.187 179.667 167.836"/>
   <polyline stroke-width="0.2" stroke-linejoin="round" points="176.751 161.978 177.475 161.496 177.956 161.134 178.073 160.997 178.086 160.919 178.106 160.694 177.925 159.883 177.768 159.634 177.73 159.616 177.531 159.528 177.329 159.568 176.802 159.731 176.302 160.02"/>
   <line stroke-width="0.2" stroke-linejoin="round" x1="176.149" y1="160.108" x2="171.73" y2="162.651"/>
   <line stroke-width="0.2" stroke-linejoin="round" x1="171.717" y1="162.658" x2="167.692" y2="164.975"/>
   <polyline stroke-width="0.2" stroke-linejoin="round" points="167.652 164.997 167.55 165.094 167.497 165.235 167.502 165.396 167.558 165.555 167.657 165.681 168.402 166.391 168.652 166.513 168.814 166.48 170.032 165.882 170.237 165.816 170.76 165.896 171.526 166.258 171.908 166.365 172.449 166.252 175.409 164.548 175.905 164.17 176.265 163.788 176.389 163.362 176.401 163.306 176.48 162.478"/>
   <polyline stroke-width="0.2" stroke-linejoin="round" points="176.479 162.497 176.556 162.211 176.829 161.885"/>
   <polyline stroke-width="0.2" stroke-linejoin="round" points="173.54 154.182 174.045 153.977 174.145 153.941 174.354 153.965 174.407 153.987 174.561 154.104 174.651 154.28 174.849 155.08 174.836 155.304 174.824 155.385 174.712 155.524 174.257 155.924 173.307 156.625"/>
   <polyline stroke-width="0.2" stroke-linejoin="round" points="173.253 156.838 173.183 157.677 173.175 157.74 172.986 158.272 172.703 158.536 172.229 158.95 169.262 160.658 168.724 160.776 168.341 160.675 167.532 160.318 167.008 160.245 166.806 160.312 165.604 160.905 165.438 160.935 165.182 160.816 165.062 160.705"/>
   <polyline stroke-width="0.2" stroke-linejoin="round" points="165.021 160.668 164.419 160.116 164.258 159.836 164.252 159.676 164.305 159.538 164.405 159.442"/>
   <line stroke-width="0.2" stroke-linejoin="round" x1="164.354" y1="159.49" x2="166.274" y2="158.366"/>
   <line stroke-width="0.2" stroke-linejoin="round" x1="166.288" y1="158.358" x2="171.276" y2="155.486"/>
   <line stroke-width="0.2" stroke-linejoin="round" x1="171.276" y1="155.486" x2="173.633" y2="154.145"/>
   <polyline stroke-width="0.2" stroke-linejoin="round" points="159.599 150.77 159.597 150.771 159.569 150.793"/>
   <polyline stroke-width="0.4" stroke-linejoin="round" points="159.171 151.1 158.937 151.294 158.242 151.848 157.753 152.533 157.597 152.877 157.247 154.026 157.3 155.311 157.557 156.173 157.98 156.995 163.062 165.385 167.82 173.963 172.241 182.697 176.301 191.544 176.764 192.379 177.355 193.075 178.375 193.764 178.728 193.86 179.89 194.129 180.662 194.044 181.531 193.901 181.586 193.878"/>
   <polyline stroke-width="0.2" stroke-linejoin="round" points="187.578 190.455 187.621 190.424 187.627 190.417"/>
  </g>
  <g>
   <line stroke="#FFFFFF" stroke-width="2" stroke-linejoin="round" x1="121.043" y1="149.6" x2="87.954" y2="120.266"/>
   <line stroke-width="0.3" stroke-linejoin="round" stroke-dasharray="6 2 1 2" x1="121.903" y1="150.364" x2="87.094" y2="119.503"/>
  </g>
  <text x="70" y="288" stroke="none" fill="#000000" font-family="'Arial'" font-size="3.528"> Copyright, 2016 - 2017. Jaguar Land Rover Limited.</text>
 </g>
 <g id="Commodity_x0020_Layer">
  <path stroke="none" fill="#FFFFFF" d="M67.117 136.03L82.177 136.03 82.177 131.443 67.117 131.443z"/>
  <text x="67.117" y="135.324" stroke="none" fill="#0026FF" font-family="'Arial'" font-size="4.232" font-weight="bold" id="AUTOID_193931" class="9F836A">9F836A</text>
  <path stroke="none" fill="#FFFFFF" d="M47.215 207.906L55.683 207.906 55.683 203.319 47.215 203.319z"/>
  <text x="47.215" y="207.2" stroke="none" fill="#0026FF" font-family="'Arial'" font-size="4.232" font-weight="bold" id="AUTOID_193930" class="HN1">HN1</text>
  <path stroke="none" fill="#FFFFFF" d="M137.371 94.141L152.431 94.141 152.431 89.555 137.371 89.555z"/>
  <text x="137.371" y="93.436" stroke="none" fill="#0026FF" font-family="'Arial'" font-size="4.232" font-weight="bold" id="AUTOID_193929" class="9F836B">9F836B</text>
  <path stroke="none" fill="#FFFFFF" d="M117.105 165.996L125.573 165.996 125.573 161.409 117.105 161.409z"/>
  <text x="117.105" y="165.289" stroke="none" fill="#0026FF" font-family="'Arial'" font-size="4.232" font-weight="bold" id="AUTOID_193928" class="HN1">HN1</text>
 </g>
</svg>
