<svg width="13" height="13" viewBox="0 0 13 13" fill="none" xmlns="http://www.w3.org/2000/svg">
<path d="M8.5 2.4376C9.32844 2.4376 10 1.89193 10 1.2188C10 0.545666 9.32844 0 8.5 0C7.67156 0 7 0.545666 7 1.2188C7 1.89193 7.67156 2.4376 8.5 2.4376ZM3.55281 8.06108L3.09031 8.93759H1C0.447812 8.93759 0 9.30146 0 9.75013C0 10.1988 0.447812 10.5627 1 10.5627H3.42031C4.02187 10.5627 4.56344 10.2722 4.79875 9.82402L5.07344 9.30298L4.74 9.14301C4.19875 8.88326 3.80063 8.49883 3.55281 8.06108ZM12 5.68747H10.6241L9.80969 4.33536C9.41906 3.68661 8.70188 3.21229 7.87906 3.04192L5.65781 2.50514C4.77344 2.33247 3.8525 2.49117 3.13156 2.94035L1.89188 3.71251C1.45344 3.98547 1.37031 4.49533 1.70687 4.85158C2.04344 5.20782 2.67063 5.2746 3.10875 5.00189L4.34906 4.22974C4.58875 4.08018 4.89406 4.0266 5.13875 4.07383L5.59812 4.18479L4.4275 6.40377C4.03312 7.15231 4.38656 8.02908 5.24937 8.44297L7.905 9.71686L7.04656 11.9445C6.88156 12.3726 7.175 12.8284 7.70188 12.9624C7.80156 12.9878 7.90219 13 8.00125 13C8.42656 13 8.82094 12.7773 8.955 12.43L9.94375 9.86388C10.1284 9.3365 9.85344 8.77001 9.2675 8.48283L7.35375 7.56518L8.33219 5.57752L8.96562 6.6295C9.21562 7.0444 9.74438 7.31228 10.3128 7.31228H12C12.5522 7.31228 13 6.94842 13 6.49975C13 6.05108 12.5522 5.68747 12 5.68747Z" fill="#3D4856"/>
</svg>
