<svg width="38" height="38" viewBox="0 0 38 38" fill="none" xmlns="http://www.w3.org/2000/svg">
<rect x="1" y="1" width="36" height="36" rx="4" fill="#3D4856"/>
<path d="M22.3462 11.6877C23.9393 11.6877 25.2308 10.6383 25.2308 9.34384C25.2308 8.04936 23.9393 7 22.3462 7C20.753 7 19.4615 8.04936 19.4615 9.34384C19.4615 10.6383 20.753 11.6877 22.3462 11.6877ZM12.8323 22.5021L11.9429 24.1877H7.92308C6.86118 24.1877 6 24.8874 6 25.7502C6 26.6131 6.86118 27.3128 7.92308 27.3128H12.5775C13.7344 27.3128 14.7758 26.7542 15.2284 25.8923L15.7566 24.8903L15.1154 24.5827C14.0745 24.0832 13.3089 23.3439 12.8323 22.5021ZM29.0769 17.9374H26.4309L24.8648 15.3372C24.1136 14.0896 22.7344 13.1775 21.152 12.8498L16.8804 11.8176C15.1797 11.4855 13.4087 11.7907 12.0222 12.6545L9.63822 14.1394C8.79507 14.6644 8.63522 15.6449 9.28245 16.33C9.92969 17.015 11.1358 17.1435 11.9784 16.619L14.3636 15.1341C14.8245 14.8465 15.4117 14.7435 15.8822 14.8343L16.7656 15.0477L14.5144 19.3149C13.756 20.7544 14.4357 22.4405 16.095 23.2365L21.2019 25.6863L19.5511 29.9701C19.2338 30.7934 19.7981 31.6699 20.8113 31.9277C21.003 31.9766 21.1965 32 21.387 32C22.2049 32 22.9633 31.5718 23.2212 30.9038L25.1226 25.969C25.4778 24.9548 24.9489 23.8654 23.8221 23.3131L20.1418 21.5484L22.0234 17.726L23.2416 19.749C23.7224 20.5469 24.7392 21.0621 25.8323 21.0621H29.0769C30.1388 21.0621 31 20.3623 31 19.4995C31 18.6367 30.1388 17.9374 29.0769 17.9374Z" fill="white"/>
<rect x="1" y="1" width="36" height="36" rx="4" stroke="#3D4856" stroke-width="2"/>
</svg>
