<?xml version="1.0" encoding="utf-8"?>
<!-- Generator: Adobe Illustrator 24.0.2, SVG Export Plug-In . SVG Version: 6.00 Build 0)  -->
<svg version="1.2" baseProfile="tiny" id="Layer_1" xmlns="http://www.w3.org/2000/svg" xmlns:xlink="http://www.w3.org/1999/xlink"
	 x="0px" y="0px" viewBox="0 0 36 29" xml:space="preserve">
<path fill-rule="evenodd" fill="#FFFFFF" d="M2.7,15C2,15.6,1,15.5,0.4,14.9c-0.6-0.6-0.5-1.5,0.1-2L15.5,0.9c1.4-1.2,3.6-1.2,5.1,0
	L26.9,6V4.2c0-0.5,0.5-0.9,1-0.9h2.3c0.6,0,1,0.4,1,0.9v5.3l4.2,3.4c0.7,0.5,0.7,1.4,0.1,2C35,15.5,34,15.6,33.3,15
	C28.1,10.9,23.7,7.2,18.4,3c-0.2-0.2-0.5-0.2-0.7,0L2.7,15z"/>
<path fill-rule="evenodd" fill="#FFFFFF" d="M31.1,15.5v11.6c0,1-1,1.9-2.1,1.9h-7.2v-9.7h-7.5V29H7c-1.2,0-2.1-0.9-2.1-1.9V15.5
	L18,4.9L31.1,15.5z"/>
</svg>
