<svg width="60" height="72" viewBox="0 0 60 72" fill="none" xmlns="http://www.w3.org/2000/svg"><g clip-path="url(#clip0)"><path d="M48.457 35.855c0-1.717.73-3.364 2.029-4.58 1.299-1.216 3.062-1.901 4.902-1.906V5.429c-.001-1.137-.485-2.226-1.346-3.03a4.768 4.768 0 00-3.247-1.256H5.677a4.781 4.781 0 00-3.256 1.26c-.863.805-1.349 1.898-1.35 3.038v61.122c0 1.139.485 2.231 1.348 3.037a4.775 4.775 0 003.255 1.257h45.128c1.215 0 2.382-.45 3.242-1.252.86-.802 1.343-1.89 1.344-3.024v-24.24c-1.84-.005-3.603-.691-4.902-1.907-1.3-1.215-2.03-2.862-2.03-4.58z" stroke="#F67B1E" stroke-width="2"/><path d="M37.938 20.485h-2.176v-6.222c3.12-.066 4.46.07 4.46 3.078 0 1.554-.436 3.144-2.277 3.144h-.007zm5.448 2.06v-.066c2.68-1.147 3.37-3.078 3.37-5.767 0-5.035-2.602-6.98-7.826-6.98h-9.315v25.282h6.372v-9.967h2.101c1.486.103 1.994 1.116 2.173 2.67.045.395.045 3.588.042 5.636 0 .074.01.148.03.219.057.4.271.766.601 1.027.33.261.752.4 1.184.387h4.43v-9.162c0-1.8-1.396-2.908-3.171-3.278m-16.137 9.08a1.65 1.65 0 00-.538-1.203 1.897 1.897 0 00-1.293-.496H16.66V11.286c0-.216-.045-.43-.133-.63-.088-.2-.218-.38-.381-.533a1.775 1.775 0 00-.571-.357 1.87 1.87 0 00-.675-.125h-4.615v25.351h16.959v-3.366h-.004zm-8.404 16.092h-2.173v-6.21c3.116-.07 4.453.064 4.453 3.075 0 1.557-.433 3.144-2.277 3.144l-.003-.009zm5.207 2.067v-.082c2.687-1.141 3.373-3.068 3.373-5.766 0-5.035-2.602-6.98-7.822-6.98h-9.309v25.357h6.378V52.298h2.101c1.483.1 1.99 1.117 2.173 2.67.042.392.042 3.585.04 5.637 0 .073.01.145.032.215.053.408.263.784.591 1.058.328.274.75.428 1.191.433h4.414v-9.254c0-1.897-1.38-2.908-3.152-3.281m18-12.841a1.822 1.822 0 00-1.235.487 1.58 1.58 0 00-.508 1.158v17.314c0 1.08-.505 2.428-2.16 2.428-1.802 0-2.199-1.047-2.199-2.267V38.577a1.591 1.591 0 00-.514-1.155 1.828 1.828 0 00-1.236-.484h-4.586v18.35c0 5.207 3.133 7.605 8.502 7.605 6.48 0 8.535-3.311 8.535-7.606V36.935h-4.6zm13.355 3.205c2.536 0 4.593-1.919 4.593-4.286 0-2.367-2.057-4.285-4.593-4.285s-4.593 1.918-4.593 4.285 2.057 4.286 4.593 4.286z" fill="#F67B1E"/></g><defs><clipPath id="clip0"><path fill="#fff" d="M0 0h60v72H0z"/></clipPath></defs></svg>